<svg width="629" height="64" viewBox="0 0 629 64" fill="none" xmlns="http://www.w3.org/2000/svg">
<path d="M25.3125 58C25.3125 57.4477 25.7602 57 26.3125 57H35.8906C36.4429 57 36.8906 57.4477 36.8906 58V64H25.3125V58Z" fill="#B0B0B0"/>
<path d="M50.4688 63C50.4688 62.4477 50.9165 62 51.4687 62H61.0469C61.5992 62 62.0469 62.4477 62.0469 63V64H50.4688V63Z" fill="#B0B0B0"/>
<path d="M63.0469 61C63.0469 60.4477 63.4946 60 64.0469 60H73.625C74.1773 60 74.625 60.4477 74.625 61V64H63.0469V61Z" fill="#B0B0B0"/>
<path d="M75.625 63C75.625 62.4477 76.0727 62 76.625 62H86.2031C86.7554 62 87.2031 62.4477 87.2031 63V64H75.625V63Z" fill="#B0B0B0"/>
<path d="M88.2031 61C88.2031 60.4477 88.6508 60 89.2031 60H98.7813C99.3335 60 99.7812 60.4477 99.7812 61V64H88.2031V61Z" fill="#B0B0B0"/>
<path d="M100.781 58C100.781 57.4477 101.229 57 101.781 57H111.359C111.912 57 112.359 57.4477 112.359 58V64H100.781V58Z" fill="#B0B0B0"/>
<path d="M113.359 60C113.359 59.4477 113.807 59 114.359 59H123.938C124.49 59 124.938 59.4477 124.938 60V64H113.359V60Z" fill="#B0B0B0"/>
<path d="M125.938 55C125.938 54.4477 126.385 54 126.937 54H136.516C137.068 54 137.516 54.4477 137.516 55V64H125.938V55Z" fill="#B0B0B0"/>
<path d="M138.516 50C138.516 49.4477 138.963 49 139.516 49H149.094C149.646 49 150.094 49.4477 150.094 50V64H138.516V50Z" fill="#B0B0B0"/>
<path d="M151.094 45C151.094 44.4477 151.541 44 152.094 44H161.672C162.224 44 162.672 44.4477 162.672 45V64H151.094V45Z" fill="#B0B0B0"/>
<path d="M163.672 29C163.672 28.4477 164.12 28 164.672 28H174.25C174.802 28 175.25 28.4477 175.25 29V64H163.672V29Z" fill="#B0B0B0"/>
<path d="M176.25 21C176.25 20.4477 176.698 20 177.25 20H186.828C187.38 20 187.828 20.4477 187.828 21V64H176.25V21Z" fill="#B0B0B0"/>
<path d="M188.828 1C188.828 0.447715 189.276 0 189.828 0H199.406C199.959 0 200.406 0.447715 200.406 1V64H188.828V1Z" fill="#B0B0B0"/>
<path d="M201.406 13C201.406 12.4477 201.854 12 202.406 12H211.984C212.537 12 212.984 12.4477 212.984 13V64H201.406V13Z" fill="#B0B0B0"/>
<path d="M213.984 1C213.984 0.447715 214.432 0 214.984 0H224.563C225.115 0 225.562 0.447715 225.562 1V64H213.984V1Z" fill="#B0B0B0"/>
<path d="M226.562 26C226.562 25.4477 227.01 25 227.562 25H237.141C237.693 25 238.141 25.4477 238.141 26V64H226.562V26Z" fill="#B0B0B0"/>
<path d="M239.141 29C239.141 28.4477 239.588 28 240.141 28H249.719C250.271 28 250.719 28.4477 250.719 29V64H239.141V29Z" fill="#B0B0B0"/>
<path d="M251.719 41C251.719 40.4477 252.166 40 252.719 40H262.297C262.849 40 263.297 40.4477 263.297 41V64H251.719V41Z" fill="#B0B0B0"/>
<path d="M264.297 42C264.297 41.4477 264.745 41 265.297 41H274.875C275.427 41 275.875 41.4477 275.875 42V64H264.297V42Z" fill="#B0B0B0"/>
<path d="M276.875 28C276.875 27.4477 277.323 27 277.875 27H287.453C288.005 27 288.453 27.4477 288.453 28V64H276.875V28Z" fill="#B0B0B0"/>
<path d="M289.453 21C289.453 20.4477 289.901 20 290.453 20H300.031C300.584 20 301.031 20.4477 301.031 21V64H289.453V21Z" fill="#B0B0B0"/>
<path d="M302.031 26C302.031 25.4477 302.479 25 303.031 25H312.609C313.162 25 313.609 25.4477 313.609 26V64H302.031V26Z" fill="#B0B0B0"/>
<path d="M314.609 31C314.609 30.4477 315.057 30 315.609 30H325.188C325.74 30 326.188 30.4477 326.188 31V64H314.609V31Z" fill="#B0B0B0"/>
<path d="M327.188 23C327.188 22.4477 327.635 22 328.187 22H337.766C338.318 22 338.766 22.4477 338.766 23V64H327.188V23Z" fill="#B0B0B0"/>
<path d="M339.766 28C339.766 27.4477 340.213 27 340.766 27H350.344C350.896 27 351.344 27.4477 351.344 28V64H339.766V28Z" fill="#B0B0B0"/>
<path d="M352.344 39C352.344 38.4477 352.791 38 353.344 38H362.922C363.474 38 363.922 38.4477 363.922 39V64H352.344V39Z" fill="#B0B0B0"/>
<path d="M364.922 29C364.922 28.4477 365.37 28 365.922 28H375.5C376.052 28 376.5 28.4477 376.5 29V64H364.922V29Z" fill="#B0B0B0"/>
<path d="M377.5 31C377.5 30.4477 377.948 30 378.5 30H388.078C388.63 30 389.078 30.4477 389.078 31V64H377.5V31Z" fill="#B0B0B0"/>
<path d="M390.078 45C390.078 44.4477 390.526 44 391.078 44H400.656C401.209 44 401.656 44.4477 401.656 45V64H390.078V45Z" fill="#B0B0B0"/>
<path d="M402.656 42C402.656 41.4477 403.104 41 403.656 41H413.234C413.787 41 414.234 41.4477 414.234 42V64H402.656V42Z" fill="#B0B0B0"/>
<path d="M415.234 41C415.234 40.4477 415.682 40 416.234 40H425.813C426.365 40 426.812 40.4477 426.812 41V64H415.234V41Z" fill="#B0B0B0"/>
<path d="M427.812 23C427.812 22.4477 428.26 22 428.812 22H438.391C438.943 22 439.391 22.4477 439.391 23V64H427.812V23Z" fill="#B0B0B0"/>
<path d="M440.391 50C440.391 49.4477 440.838 49 441.391 49H450.969C451.521 49 451.969 49.4477 451.969 50V64H440.391V50Z" fill="#B0B0B0"/>
<path d="M452.969 60C452.969 59.4477 453.416 59 453.969 59H463.547C464.099 59 464.547 59.4477 464.547 60V64H452.969V60Z" fill="#B0B0B0"/>
<path d="M465.547 45C465.547 44.4477 465.995 44 466.547 44H476.125C476.677 44 477.125 44.4477 477.125 45V64H465.547V45Z" fill="#B0B0B0"/>
<path d="M478.125 55C478.125 54.4477 478.573 54 479.125 54H488.703C489.255 54 489.703 54.4477 489.703 55V64H478.125V55Z" fill="#B0B0B0"/>
<path d="M490.703 45C490.703 44.4477 491.151 44 491.703 44H501.281C501.834 44 502.281 44.4477 502.281 45V64H490.703V45Z" fill="#B0B0B0"/>
<path d="M503.281 53C503.281 52.4477 503.729 52 504.281 52H513.859C514.412 52 514.859 52.4477 514.859 53V64H503.281V53Z" fill="#B0B0B0"/>
<path d="M515.859 57C515.859 56.4477 516.307 56 516.859 56H526.438C526.99 56 527.438 56.4477 527.438 57V64H515.859V57Z" fill="#B0B0B0"/>
<path d="M528.438 52C528.438 51.4477 528.885 51 529.437 51H539.016C539.568 51 540.016 51.4477 540.016 52V64H528.438V52Z" fill="#B0B0B0"/>
<path d="M541.016 52C541.016 51.4477 541.463 51 542.016 51H551.594C552.146 51 552.594 51.4477 552.594 52V64H541.016V52Z" fill="#B0B0B0"/>
<path d="M553.594 50C553.594 49.4477 554.041 49 554.594 49H564.172C564.724 49 565.172 49.4477 565.172 50V64H553.594V50Z" fill="#B0B0B0"/>
<path d="M566.172 57C566.172 56.4477 566.62 56 567.172 56H576.75C577.302 56 577.75 56.4477 577.75 57V64H566.172V57Z" fill="#B0B0B0"/>
<path d="M578.75 61C578.75 60.4477 579.198 60 579.75 60H589.328C589.88 60 590.328 60.4477 590.328 61V64H578.75V61Z" fill="#B0B0B0"/>
<path d="M591.328 53C591.328 52.4477 591.776 52 592.328 52H601.906C602.459 52 602.906 52.4477 602.906 53V64H591.328V53Z" fill="#B0B0B0"/>
<path d="M603.906 60C603.906 59.4477 604.354 59 604.906 59H614.484C615.037 59 615.484 59.4477 615.484 60V64H603.906V60Z" fill="#B0B0B0"/>
<path d="M616.484 61C616.484 60.4477 616.932 60 617.484 60H627.063C627.615 60 628.062 60.4477 628.062 61V64H616.484V61Z" fill="#B0B0B0"/>
</svg>
