<svg width="19" height="19" viewBox="0 0 19 19" fill="none" xmlns="http://www.w3.org/2000/svg">
<path fill-rule="evenodd" clip-rule="evenodd" d="M2.3089 10.2083C2.69429 10.2083 3 9.88538 3 9.5C3 6.97496 3.62991 5.44852 4.53921 4.53921C5.44852 3.62991 6.97496 3 9.5 3C12.025 3 13.5515 3.62991 14.4608 4.53921C14.8218 4.90021 15.1387 5.35848 15.3897 5.93788C15.5721 6.3589 15.9659 6.66667 16.4248 6.66667C17.0857 6.66667 17.581 6.04914 17.3436 5.43234C16.2065 2.47745 13.592 1 9.5 1C3.83333 1 1 3.83333 1 9.5C1 9.89632 1.32765 10.2083 1.72396 10.2083H2.3089ZM3.33112 12.2682C3.31454 12.2091 3.21482 12.2207 3.21482 12.2822C3.21482 12.3104 3.19191 12.3333 3.16364 12.3333H2.35755C1.80826 12.3333 1.39753 12.8451 1.58079 13.3629C2.67484 16.4543 5.31458 18 9.5 18C15.1667 18 18 15.1667 18 9.5C18 9.10368 17.6724 8.79167 17.276 8.79167H16.6911C16.3057 8.79167 16 9.11462 16 9.5C16 12.025 15.3701 13.5515 14.4608 14.4608C13.5515 15.3701 12.025 16 9.5 16C6.97496 16 5.44852 15.3701 4.53921 14.4608C4.02695 13.9485 3.60337 13.2404 3.33112 12.2682Z" fill="#6F767E"/>
<path d="M17.261 1.70831V5.95831H12.8262" stroke="#6F767E" stroke-width="2" stroke-linecap="round" stroke-linejoin="round"/>
<path d="M1.73905 17.2917L1.73905 13.0417L6.17383 13.0417" stroke="#6F767E" stroke-width="2" stroke-linecap="round" stroke-linejoin="round"/>
</svg>
