<svg width="170" height="50" viewBox="0 0 170 50" fill="none" xmlns="http://www.w3.org/2000/svg">
<g clip-path="url(#clip0_1982_3805)">
<path opacity="0.4" d="M11.7607 34.6421C10.5455 34.3869 9.36845 33.9716 8.25978 33.407C6.3278 33.6967 4.35446 33.4645 2.5397 32.7341C1.50205 32.3133 0.589805 33.568 1.29705 34.4437C2.36918 35.766 3.65222 36.8979 5.09316 37.7923C8.82384 40.1244 13.4505 40.5574 17.533 39.1561C18.6278 37.679 19.3439 35.9507 19.6175 34.1253C17.0906 35.0022 14.3784 35.1806 11.7607 34.6421ZM10.6932 24.8166C9.82643 22.2603 9.65012 19.516 10.1825 16.8675C10.4347 15.6379 10.845 14.4472 11.4029 13.3255C11.1168 11.3707 11.3462 9.37414 12.068 7.5379C12.4839 6.48834 11.2438 5.56489 10.3782 6.28031C9.07118 7.36497 7.95268 8.66321 7.06898 10.1213C4.76395 13.896 4.33587 18.577 5.72082 22.7076C7.18076 23.8152 8.88908 24.5398 10.6932 24.8166ZM28.8176 25.0958C29.6845 27.6523 29.8607 30.3966 29.3283 33.0451C29.0763 34.2746 28.666 35.4655 28.1079 36.5871C28.3939 38.5419 28.1646 40.5384 27.4429 42.3746C27.0268 43.4242 28.2672 44.3477 29.1326 43.6323C30.4396 42.5475 31.5582 41.2493 32.4419 39.7913C34.7468 36.0165 35.175 31.3356 33.79 27.2051C32.3301 26.0973 30.6218 25.3727 28.8176 25.0958ZM38.2139 15.4688C37.1418 14.1464 35.8586 13.0146 34.4177 12.1202C30.6869 9.78818 26.0603 9.3552 21.9779 10.7565C20.8832 12.2335 20.167 13.9619 19.8935 15.7873C22.4202 14.9104 25.1325 14.732 27.7501 15.2706C28.9653 15.5257 30.1424 15.9409 31.2511 16.5055C33.183 16.2157 35.1565 16.4478 36.9712 17.1783C38.0088 17.5992 38.921 16.3446 38.2139 15.4688Z" fill="#22898C"/>
<path d="M39.095 26.3702C37.7987 20.8178 33.2805 16.3879 27.751 15.2708C25.1334 14.7322 22.4211 14.9106 19.8944 15.7875C20.1753 13.8967 20.9289 12.1098 22.084 10.5964C23.2389 9.08304 24.7569 7.8933 26.4939 7.14006C27.5217 6.69535 27.2901 5.1553 26.1779 5.04199C24.4956 4.874 22.7973 4.99168 21.1533 5.39017C15.6659 6.70175 11.2874 11.2731 10.1834 16.8678C9.651 19.5162 9.82731 22.2605 10.6941 24.817C8.82529 24.5328 7.05922 23.7702 5.56342 22.6014C4.06762 21.4329 2.89168 19.8971 2.14716 18.1396C1.70762 17.1 0.185496 17.3341 0.0733537 18.4593C-0.0927074 20.1614 0.023656 21.8796 0.417632 23.543C1.71395 29.0951 6.23207 33.5252 11.7616 34.6422C14.3792 35.1808 17.0915 35.0024 19.6182 34.1255C19.3374 36.0164 18.5838 37.8031 17.4287 39.3167C16.2738 40.8299 14.7557 42.0198 13.0188 42.7729C11.9911 43.2177 12.2226 44.7577 13.3347 44.871C15.017 45.0391 16.7154 44.9213 18.3592 44.5228C23.8467 43.2113 28.2253 38.64 29.3292 33.0454C29.8616 30.3968 29.6854 27.6525 28.8185 25.096C30.6874 25.3803 32.4535 26.143 33.9492 27.3115C35.4451 28.4801 36.621 30.016 37.3654 31.7734C37.805 32.813 39.3271 32.579 39.4392 31.4537C39.6053 29.7516 39.489 28.0335 39.095 26.3702ZM19.7563 28.7046C19.0235 28.7046 18.3074 28.4847 17.6982 28.073C17.089 27.6612 16.6142 27.0756 16.3337 26.3908C16.0534 25.706 15.98 24.9524 16.1229 24.2253C16.2659 23.4983 16.6187 22.8303 17.1368 22.3063C17.6549 21.782 18.3151 21.4251 19.0335 21.2805C19.7522 21.1359 20.4969 21.21 21.1739 21.4938C21.8509 21.7774 22.4293 22.2578 22.8364 22.8741C23.2435 23.4905 23.4608 24.2151 23.4608 24.9566C23.4608 25.9506 23.0705 26.9039 22.3756 27.6067C21.681 28.3097 20.7388 28.7046 19.7563 28.7046Z" fill="#22898C"/>
<path d="M65.4125 27.2753L65.6496 31.9529H68.945V22.7177H58.4421V26.052H65.0569C64.5826 27.971 62.5675 28.9785 58.8926 28.9785C54.8858 28.9785 52.918 27.2034 52.918 23.6052V23.5813C52.918 19.6713 55.1703 18.0401 59.1059 18.0401C62.3066 18.0401 63.8951 18.9756 64.2744 20.8467H68.8266C68.0678 16.337 64.4878 14.418 58.9875 14.418C55.0517 14.418 51.8985 15.8812 50.1204 18.6158C49.2668 19.9591 48.8164 21.5903 48.8164 23.5093V23.6292C48.8164 27.7551 50.4761 30.2738 53.2973 31.5212C54.7199 32.1209 56.332 32.4327 58.1812 32.4327C62.4489 32.4327 64.9146 30.6816 65.4125 27.2753ZM86.0591 28.2349L87.861 31.9529H92.1048L83.4038 14.8497H79.2073L70.6485 31.9529H74.9398L76.6942 28.2349H86.0591ZM81.2937 18.4719L84.4469 24.9725H78.2353L81.2937 18.4719ZM94.0075 31.9529H109.252V28.1629H98.0379V14.8497H94.0075V31.9529ZM126.16 28.2349L127.962 31.9529H132.206L123.505 14.8497H119.308L110.75 31.9529H115.041L116.795 28.2349H126.16ZM121.395 18.4719L124.548 24.9725H118.336L121.395 18.4719ZM141.393 25.4523L146.799 31.9529H151.754L143.93 22.8376L151.185 14.8497H146.182L141.441 20.5108L136.675 14.8497H131.72L138.833 22.8616L130.724 31.9529H135.822L141.393 25.4523ZM157.551 31.9529H161.7V24.9965L169.88 14.8497H165.019L159.708 21.6622L154.8 14.8497H149.916L157.551 24.9246V31.9529Z" fill="#22898C"/>
</g>
<defs>
<clipPath id="clip0_1982_3805">
<rect width="169.913" height="39.9794" fill="white" transform="translate(0 4.9668)"/>
</clipPath>
</defs>
</svg>
