<svg width="107" height="37" viewBox="0 0 107 37" fill="none" xmlns="http://www.w3.org/2000/svg">
<path d="M1.2642 25.7661V11.2207H4.33949V23.2306H10.5753V25.7661H1.2642ZM15.6871 11.2207V25.7661H12.6119V11.2207H15.6871ZM18.2173 25.7661V11.2207H24.0412C25.1113 11.2207 26.0038 11.3793 26.7188 11.6965C27.4337 12.0137 27.9711 12.4541 28.331 13.0175C28.6908 13.5762 28.8707 14.2202 28.8707 14.9494C28.8707 15.5175 28.7571 16.0171 28.5298 16.4479C28.3026 16.8741 27.9901 17.2244 27.5923 17.4991C27.1993 17.769 26.7495 17.9607 26.2429 18.0744V18.2164C26.7969 18.2401 27.3153 18.3963 27.7983 18.6851C28.286 18.974 28.6813 19.3788 28.9844 19.8996C29.2874 20.4157 29.4389 21.0313 29.4389 21.7462C29.4389 22.518 29.2472 23.2069 28.8636 23.813C28.4848 24.4143 27.9238 24.8902 27.1804 25.2405C26.437 25.5909 25.5208 25.7661 24.4318 25.7661H18.2173ZM21.2926 23.2519H23.7997C24.6567 23.2519 25.2817 23.0886 25.6747 22.7619C26.0677 22.4304 26.2642 21.9901 26.2642 21.4408C26.2642 21.0384 26.1671 20.6833 25.973 20.3755C25.7789 20.0677 25.5019 19.8262 25.142 19.6511C24.7869 19.4759 24.3632 19.3883 23.8707 19.3883H21.2926V23.2519ZM21.2926 17.3073H23.5724C23.9938 17.3073 24.3679 17.2339 24.6946 17.0871C25.026 16.9356 25.2865 16.7226 25.4759 16.4479C25.67 16.1733 25.767 15.8442 25.767 15.4607C25.767 14.9351 25.58 14.5114 25.206 14.1894C24.8366 13.8674 24.3111 13.7065 23.6293 13.7065H21.2926V17.3073ZM31.44 25.7661V11.2207H41.2411V13.7562H34.5153V17.2221H40.7369V19.7576H34.5153V23.2306H41.2695V25.7661H31.44ZM43.6861 25.7661V11.2207H49.4247C50.5232 11.2207 51.4607 11.4172 52.2372 11.8101C53.0185 12.1984 53.6127 12.75 54.0199 13.465C54.4318 14.1752 54.6378 15.0109 54.6378 15.9721C54.6378 16.938 54.4295 17.769 54.0128 18.465C53.5961 19.1563 52.9924 19.6866 52.2017 20.0559C51.4157 20.4252 50.464 20.6099 49.3466 20.6099H45.5043V18.1383H48.8494C49.4366 18.1383 49.9242 18.0578 50.3125 17.8968C50.7008 17.7358 50.9896 17.4943 51.179 17.1724C51.3731 16.8504 51.4702 16.4503 51.4702 15.9721C51.4702 15.4891 51.3731 15.0819 51.179 14.7505C50.9896 14.419 50.6984 14.1681 50.3054 13.9976C49.9171 13.8225 49.4271 13.7349 48.8352 13.7349H46.7614V25.7661H43.6861ZM51.5412 19.1468L55.1562 25.7661H51.7614L48.2244 19.1468H51.5412ZM56.2571 13.7562V11.2207H68.2031V13.7562H63.75V25.7661H60.7102V13.7562H56.2571ZM79.1548 11.2207H82.2301V20.6667C82.2301 21.7273 81.9768 22.6553 81.4702 23.4508C80.9683 24.2462 80.2652 24.8665 79.3608 25.3116C78.4564 25.7519 77.4029 25.9721 76.2003 25.9721C74.9929 25.9721 73.937 25.7519 73.0327 25.3116C72.1283 24.8665 71.4252 24.2462 70.9233 23.4508C70.4214 22.6553 70.1705 21.7273 70.1705 20.6667V11.2207H73.2457V20.4039C73.2457 20.9579 73.3665 21.4503 73.608 21.8812C73.8542 22.312 74.1998 22.6506 74.6449 22.8968C75.09 23.143 75.6084 23.2661 76.2003 23.2661C76.7969 23.2661 77.3153 23.143 77.7557 22.8968C78.2008 22.6506 78.544 22.312 78.7855 21.8812C79.0317 21.4503 79.1548 20.9579 79.1548 20.4039V11.2207ZM84.7603 11.2207H88.5529L92.5586 20.9934H92.729L96.7347 11.2207H100.527V25.7661H97.5444V16.2988H97.4237L93.6594 25.6951H91.6282L87.864 16.2633H87.7433V25.7661H84.7603V11.2207Z" fill="black"/>
</svg>
