<svg width="10" height="10" viewBox="0 0 10 10" fill="none" xmlns="http://www.w3.org/2000/svg">
<path d="M0.5 5.76923C0.5 6.62883 0.546712 7.28546 0.659207 7.79164C0.770441 8.29214 0.939231 8.61438 1.16243 8.83757C1.38563 9.06077 1.70787 9.22956 2.20837 9.34079C2.71456 9.45329 3.3712 9.5 4.2308 9.5C5.09041 9.5 5.74705 9.45329 6.25323 9.34079C6.75374 9.22956 7.07598 9.06077 7.29918 8.83757C7.52238 8.61438 7.69117 8.29214 7.8024 7.79164C7.91489 7.28546 7.96161 6.62883 7.96161 5.76923C7.96161 4.90963 7.91489 4.253 7.8024 3.74682C7.69117 3.24632 7.52238 2.92408 7.29918 2.70089C7.07598 2.47769 6.75374 2.3089 6.25323 2.19767C5.74705 2.08517 5.09041 2.03846 4.2308 2.03846C3.3712 2.03846 2.71456 2.08517 2.20837 2.19767C1.70787 2.3089 1.38563 2.47769 1.16243 2.70089C0.939231 2.92408 0.770441 3.24632 0.659207 3.74682C0.546712 4.253 0.5 4.90963 0.5 5.76923Z" stroke="#A3A3A3" stroke-linecap="round" stroke-linejoin="round"/>
<path fill-rule="evenodd" clip-rule="evenodd" d="M8.4539 6.33594C8.44186 6.75638 8.41478 7.13095 8.36808 7.46424C9.66502 7.06786 9.99994 6.07086 9.99994 3.84615C9.99994 0.769231 9.2307 0 6.15376 0C3.92903 0 2.93203 0.334917 2.53564 1.63185C2.86894 1.58515 3.24351 1.55807 3.66395 1.54603C3.69284 1.50445 3.72178 1.47069 3.75002 1.44245C3.85704 1.33543 4.04336 1.21845 4.43352 1.13174C4.83503 1.04251 5.38475 1 6.15376 1C7.69938 1 8.26468 1.21742 8.5236 1.47634C8.78252 1.73526 8.99994 2.30055 8.99994 3.84615C8.99994 4.61516 8.95743 5.16487 8.8682 5.56637C8.78149 5.95652 8.66451 6.14285 8.5575 6.24986C8.52925 6.27811 8.49548 6.30704 8.4539 6.33594Z" fill="#A3A3A3"/>
</svg>
