<svg width="14" height="18" viewBox="0 0 14 18" fill="none" xmlns="http://www.w3.org/2000/svg">
<path d="M12.0002 9.98317V7.33317C11.999 6.15244 11.58 5.01023 10.8173 4.10882C10.0547 3.2074 8.99771 2.60496 7.8335 2.40817V1.49984C7.8335 1.27882 7.7457 1.06686 7.58942 0.910582C7.43314 0.754301 7.22118 0.666504 7.00016 0.666504C6.77915 0.666504 6.56719 0.754301 6.41091 0.910582C6.25463 1.06686 6.16683 1.27882 6.16683 1.49984V2.40817C5.00261 2.60496 3.9456 3.2074 3.18298 4.10882C2.42037 5.01023 2.00136 6.15244 2.00016 7.33317V9.98317C1.51387 10.1551 1.09266 10.4732 0.794278 10.8939C0.495895 11.3147 0.334946 11.8174 0.333496 12.3332V13.9998C0.333496 14.2209 0.421294 14.4328 0.577574 14.5891C0.733854 14.7454 0.945816 14.8332 1.16683 14.8332H3.7835C3.9754 15.5393 4.39433 16.1627 4.97566 16.6071C5.55699 17.0515 6.26841 17.2923 7.00016 17.2923C7.73192 17.2923 8.44334 17.0515 9.02467 16.6071C9.60599 16.1627 10.0249 15.5393 10.2168 14.8332H12.8335C13.0545 14.8332 13.2665 14.7454 13.4228 14.5891C13.579 14.4328 13.6668 14.2209 13.6668 13.9998V12.3332C13.6654 11.8174 13.5044 11.3147 13.206 10.8939C12.9077 10.4732 12.4865 10.1551 12.0002 9.98317V9.98317ZM3.66683 7.33317C3.66683 6.44912 4.01802 5.60127 4.64314 4.97615C5.26826 4.35103 6.11611 3.99984 7.00016 3.99984C7.88422 3.99984 8.73206 4.35103 9.35719 4.97615C9.98231 5.60127 10.3335 6.44912 10.3335 7.33317V9.83317H3.66683V7.33317ZM7.00016 15.6665C6.70931 15.6647 6.42397 15.5869 6.17252 15.4407C5.92107 15.2945 5.71225 15.0851 5.56683 14.8332H8.4335C8.28807 15.0851 8.07926 15.2945 7.8278 15.4407C7.57635 15.5869 7.29102 15.6647 7.00016 15.6665ZM12.0002 13.1665H2.00016V12.3332C2.00016 12.1122 2.08796 11.9002 2.24424 11.7439C2.40052 11.5876 2.61248 11.4998 2.8335 11.4998H11.1668C11.3878 11.4998 11.5998 11.5876 11.7561 11.7439C11.9124 11.9002 12.0002 12.1122 12.0002 12.3332V13.1665Z" fill="#414E61"/>
</svg>
