<svg width="24" height="24" viewBox="0 0 24 24" fill="none" xmlns="http://www.w3.org/2000/svg">
<path d="M17.7788 4C16.7411 4.03914 15.7135 4.21884 14.7241 4.5342C14.1261 4.7106 13.5173 4.84841 12.9016 4.9468C12.6535 3.56138 11.9267 2.30712 10.848 1.40298C9.76939 0.498846 8.40745 0.0022881 7 0V2C7.86605 2.00304 8.70764 2.28755 9.39788 2.81064C10.0881 3.33373 10.5896 4.06703 10.8267 4.9C10.3086 4.8121 9.7698 4.6793 9.2095 4.5352C8.17679 4.22457 7.10918 4.04477 6.0317 4C2.311 4 0 7.0652 0 12C0 19.51 4.0679 23.999 8.0005 24H8.002C8.8607 23.9545 9.70418 23.7546 10.492 23.41C10.9701 23.1953 11.479 23.057 12 23C12.5221 23.0569 13.032 23.1952 13.5112 23.41C14.2986 23.7547 15.1417 23.9545 16 24C19.9307 23.999 24 19.51 24 12C24 8.3094 22.3706 4 17.7788 4ZM16 22C15.3813 21.9475 14.7759 21.7906 14.2095 21.5361C13.5108 21.2273 12.7625 21.0458 12 21C11.2386 21.0459 10.4915 21.2274 9.7939 21.5361C9.22625 21.7904 8.61979 21.9473 8 22H8.0015C5.0513 21.9988 2 18.2586 2 12C2 10.1963 2.3931 6 6.0317 6C6.94112 6.04832 7.84129 6.20701 8.7124 6.4726C9.70401 6.76931 10.7275 6.94637 11.7612 7H12.2534C13.2709 6.9514 14.2778 6.7712 15.249 6.4639C16.0684 6.19934 16.9189 6.04338 17.7788 6C21.7964 6 22 10.9978 22 12C22 18.2586 18.9482 21.9988 16 22Z" fill="#585858"/>
</svg>
