<svg width="18" height="14" viewBox="0 0 18 14" fill="none" xmlns="http://www.w3.org/2000/svg">
<path d="M1.56322 4.88589C1.02122 5.11339 0.684804 5.51838 0.679721 6.09172C0.676221 6.49255 0.94672 7.0309 1.48872 7.2509C1.71197 7.34174 4.84655 7.76339 4.84655 7.76339C4.84655 7.76339 5.67622 10.3859 5.97522 11.3076C6.0618 11.5742 6.11114 11.7051 6.30114 11.8792C6.62347 12.1742 7.16839 12.0817 7.40405 11.8451C8.02755 11.2201 9.01305 10.2559 9.01305 10.2559L9.4278 10.5934C9.4278 10.5934 11.2696 12.0626 12.2763 12.7542C12.8691 13.1617 13.2805 13.5867 13.9476 13.5892C14.2875 13.5909 14.8326 13.4217 15.1929 13.0092C15.431 12.7367 15.5837 12.3009 15.6428 11.9101C15.7771 11.0225 17.3531 1.42589 17.3464 1.09006C17.3357 0.554226 16.885 0.252553 16.5103 0.255887C16.275 0.258387 16.0811 0.32673 15.6496 0.458396C12.3117 1.47756 1.7843 4.79339 1.56322 4.88589ZM14.0131 2.75589C14.0131 2.75589 9.61472 6.58423 7.85714 8.3459C7.29405 8.91007 7.2543 9.87839 7.2543 9.87839L6.34581 6.97172L14.0131 2.75589Z" fill="black"/>
</svg>
