<svg width="24" height="24" viewBox="0 0 24 24" fill="none" xmlns="http://www.w3.org/2000/svg">
<path d="M22 0H2C1.46957 0 0.960859 0.210714 0.585786 0.585786C0.210714 0.960859 0 1.46957 0 2V22C0 22.5304 0.210714 23.0391 0.585786 23.4142C0.960859 23.7893 1.46957 24 2 24H22C22.5304 24 23.0391 23.7893 23.4142 23.4142C23.7893 23.0391 24 22.5304 24 22V2C24 1.46957 23.7893 0.960859 23.4142 0.585786C23.0391 0.210714 22.5304 0 22 0ZM22 22H2V16L7 11L12.59 16.59C12.9647 16.9625 13.4716 17.1716 14 17.1716C14.5284 17.1716 15.0353 16.9625 15.41 16.59L17 15L22 20V22ZM22 17.17L18.41 13.58C18.0353 13.2075 17.5284 12.9984 17 12.9984C16.4716 12.9984 15.9647 13.2075 15.59 13.58L14 15.17L8.41 9.58C8.03527 9.2075 7.52837 8.99841 7 8.99841C6.47163 8.99841 5.96473 9.2075 5.59 9.58L2 13.17V2H22V17.17Z" fill="#585858"/>
</svg>
