<svg width="24" height="26" viewBox="0 0 24 26" fill="none" xmlns="http://www.w3.org/2000/svg">
<path d="M9.50276 2.4136C9.04432 4.37083 8.98195 6.39997 9.3193 8.38167C9.65666 10.3634 10.3869 12.2576 11.4672 13.9529C12.5474 15.6481 13.9558 17.1103 15.6094 18.2532C17.2631 19.3962 19.1286 20.1969 21.0963 20.6082C20.0617 21.6784 18.8227 22.5299 17.4528 23.1121C16.0828 23.6943 14.6099 23.9954 13.1214 23.9975C12.9829 23.9975 12.8432 24.0026 12.7036 23.9975C10.1122 23.9058 7.63486 22.9094 5.70174 21.1812C3.76861 19.4531 2.50186 17.1024 2.1215 14.5375C1.74113 11.9726 2.27118 9.35546 3.61958 7.14068C4.96799 4.9259 7.04956 3.25338 9.50276 2.4136ZM10.9803 0C10.9217 9.13725e-05 10.8633 0.00531129 10.8057 0.0156C7.62142 0.581187 4.75908 2.30502 2.76995 4.85505C0.780832 7.40509 -0.194367 10.601 0.032193 13.8271C0.258753 17.0532 1.67105 20.0814 3.99705 22.3284C6.32305 24.5754 9.39823 25.8823 12.6303 25.9973C12.7944 26.0033 12.9585 25.9973 13.1212 25.9973C15.22 25.9984 17.2882 25.4941 19.151 24.5271C21.0138 23.5601 22.6163 22.1588 23.8232 20.4417C23.921 20.2937 23.9781 20.1226 23.9887 19.9455C23.9994 19.7684 23.9632 19.5917 23.8837 19.4331C23.8043 19.2744 23.6845 19.1396 23.5364 19.042C23.3882 18.9444 23.217 18.8876 23.0399 18.8773C21.0421 18.702 19.1113 18.0697 17.3968 17.0293C15.6824 15.9888 14.2301 14.568 13.1523 12.8767C12.0746 11.1855 11.4001 9.26903 11.1811 7.27554C10.9622 5.28204 11.2045 3.26489 11.8895 1.38C11.9477 1.22919 11.9691 1.06665 11.9519 0.905899C11.9346 0.745149 11.8792 0.590848 11.7903 0.455842C11.7013 0.320837 11.5814 0.209034 11.4405 0.129745C11.2996 0.0504546 11.1418 0.00597177 10.9803 0Z" fill="#585858"/>
</svg>
