<svg width="21" height="19" viewBox="0 0 21 19" fill="none" xmlns="http://www.w3.org/2000/svg">
<path fill-rule="evenodd" clip-rule="evenodd" d="M18.5982 0.395412C18.0659 -0.132096 17.2035 -0.131758 16.6716 0.396152L10.5377 6.48407L10.2589 6.20746C8.92304 6.91711 7.51767 7.47541 6.01529 7.72385C4.20145 8.0238 2.37484 8.1464 0.537936 8.1464C0.0209156 14.3024 4.85296 19.5219 11.1021 18.9582L11.3202 18.5254C12.0139 17.1489 12.6886 15.1304 13.1816 13.4999C13.5269 12.3579 13.8417 11.2081 14.1335 10.0518L13.9664 9.886L20.1013 3.79716C20.6333 3.26901 20.6328 2.41276 20.1004 1.88498L18.5982 0.395412ZM11.776 7.71265L12.7282 8.65742L18.5879 2.8416L17.6354 1.89712L11.776 7.71265ZM7.8924 9.07183L11.5841 12.7347C11.8531 11.8321 12.0659 11.0522 12.1909 10.5815L9.91907 8.32742C9.45545 8.53435 8.74918 8.8217 7.8924 9.07183ZM10.9945 14.6069L5.85584 9.50832C4.33853 9.73676 3.00898 9.82579 2.19411 9.86096C2.30597 13.9923 6.08011 17.3571 9.9691 17.2974C10.321 16.5222 10.6728 15.5695 10.9945 14.6069Z" fill="black"/>
</svg>
