<svg width="13" height="4" viewBox="0 0 13 4" fill="none" xmlns="http://www.w3.org/2000/svg">
<path d="M1.5 0.75C2.19036 0.75 2.75 1.30964 2.75 2C2.75 2.69036 2.19036 3.25 1.5 3.25C0.809644 3.25 0.25 2.69036 0.25 2C0.25 1.30964 0.809644 0.75 1.5 0.75Z" fill="#1C1C1C"/>
<path d="M6.5 0.75C7.19036 0.75 7.75 1.30964 7.75 2C7.75 2.69036 7.19036 3.25 6.5 3.25C5.80964 3.25 5.25 2.69036 5.25 2C5.25 1.30964 5.80964 0.75 6.5 0.75Z" fill="#1C1C1C"/>
<path d="M12.75 2C12.75 1.30964 12.1904 0.75 11.5 0.75C10.8096 0.75 10.25 1.30964 10.25 2C10.25 2.69036 10.8096 3.25 11.5 3.25C12.1904 3.25 12.75 2.69036 12.75 2Z" fill="#1C1C1C"/>
</svg>
