<svg width="13" height="18" viewBox="0 0 13 18" fill="none" xmlns="http://www.w3.org/2000/svg">
<path d="M3.501 17.8788C3.44872 17.8788 3.39362 17.8681 3.34359 17.8451C3.17549 17.7669 3.09004 17.5797 3.14064 17.4015L5.18025 10.2364L0.619229 11.1893C0.497234 11.2112 0.373553 11.1758 0.284165 11.0943C0.194777 11.0094 0.153175 10.8869 0.172289 10.7637L1.55302 2.09762C1.57776 1.94695 1.69244 1.82721 1.84086 1.79179L8.26835 0.292437C8.40159 0.258705 8.54495 0.306491 8.63546 0.411058C8.72766 0.516749 8.75239 0.662918 8.70292 0.791659L6.83702 5.62703L12.0333 4.27835C12.184 4.23618 12.3436 4.29577 12.4342 4.42283C12.5235 4.54932 12.5264 4.71966 12.4387 4.84559L3.81414 17.709C3.74162 17.8186 3.62243 17.8788 3.501 17.8788ZM5.7104 9.36839C5.81384 9.36839 5.91335 9.41112 5.98418 9.48814C6.07357 9.58315 6.1073 9.71976 6.0702 9.84569L4.51125 15.3276L11.2642 5.25543L6.31475 6.5389C6.17701 6.57095 6.03366 6.52822 5.94089 6.42646C5.84701 6.31909 5.82171 6.17292 5.87062 6.04137L7.74608 1.18463L2.2507 2.46473L0.995332 10.3472L5.63169 9.37963C5.65924 9.3712 5.6851 9.36839 5.71096 9.36839H5.7104Z" fill="white"/>
</svg>
