<svg width="21" height="20" viewBox="0 0 21 20" fill="none" xmlns="http://www.w3.org/2000/svg">
<path d="M4.4585 4.79166C4.4585 4.33142 4.83159 3.95833 5.29183 3.95833H8.2085C8.66873 3.95833 9.04183 4.33142 9.04183 4.79166V7.70833C9.04183 8.16857 8.66873 8.54166 8.2085 8.54166H5.29183C4.83159 8.54166 4.4585 8.16857 4.4585 7.70833V4.79166Z" stroke="black" stroke-width="1.5" stroke-linecap="round" stroke-linejoin="round"/>
<path d="M4.4585 12.2917C4.4585 11.8314 4.83159 11.4583 5.29183 11.4583H8.2085C8.66873 11.4583 9.04183 11.8314 9.04183 12.2917V15.2083C9.04183 15.6686 8.66873 16.0417 8.2085 16.0417H5.29183C4.83159 16.0417 4.4585 15.6686 4.4585 15.2083V12.2917Z" stroke="black" stroke-width="1.5" stroke-linecap="round" stroke-linejoin="round"/>
<path d="M11.9585 4.79166C11.9585 4.33142 12.3316 3.95833 12.7918 3.95833H15.7085C16.1687 3.95833 16.5418 4.33142 16.5418 4.79166V7.70833C16.5418 8.16857 16.1687 8.54166 15.7085 8.54166H12.7918C12.3316 8.54166 11.9585 8.16857 11.9585 7.70833V4.79166Z" stroke="black" stroke-width="1.5" stroke-linecap="round" stroke-linejoin="round"/>
<path d="M11.9585 12.2917C11.9585 11.8314 12.3316 11.4583 12.7918 11.4583H15.7085C16.1687 11.4583 16.5418 11.8314 16.5418 12.2917V15.2083C16.5418 15.6686 16.1687 16.0417 15.7085 16.0417H12.7918C12.3316 16.0417 11.9585 15.6686 11.9585 15.2083V12.2917Z" stroke="black" stroke-width="1.5" stroke-linecap="round" stroke-linejoin="round"/>
</svg>
