<svg width="17" height="17" viewBox="0 0 17 17" fill="none" xmlns="http://www.w3.org/2000/svg">
<path d="M8.78597 8.50002C8.05264 8.50002 7.42486 8.23891 6.90264 7.71669C6.38041 7.19446 6.1193 6.56669 6.1193 5.83335C6.1193 5.10002 6.38041 4.47224 6.90264 3.95002C7.42486 3.4278 8.05264 3.16669 8.78597 3.16669C9.5193 3.16669 10.1471 3.4278 10.6693 3.95002C11.1915 4.47224 11.4526 5.10002 11.4526 5.83335C11.4526 6.56669 11.1915 7.19446 10.6693 7.71669C10.1471 8.23891 9.5193 8.50002 8.78597 8.50002ZM3.45264 13.8334V11.9667C3.45264 11.5889 3.54997 11.2416 3.74464 10.9247C3.9393 10.6078 4.19753 10.3662 4.5193 10.2C5.20819 9.85558 5.90819 9.59713 6.6193 9.42469C7.33041 9.25224 8.05264 9.16624 8.78597 9.16669C9.5193 9.16669 10.2415 9.25291 10.9526 9.42535C11.6637 9.5978 12.3637 9.85602 13.0526 10.2C13.3749 10.3667 13.6333 10.6085 13.828 10.9254C14.0226 11.2422 14.1197 11.5894 14.1193 11.9667V13.8334H3.45264Z" fill="black"/>
</svg>
