<svg width="25" height="24" viewBox="0 0 25 24" fill="none" xmlns="http://www.w3.org/2000/svg">
<path d="M18.002 12.033L13.761 9.575L15.899 4.444C15.9736 4.29161 16.0083 4.12278 15.9999 3.95331C15.9915 3.78384 15.9402 3.61927 15.8509 3.47501C15.7616 3.33074 15.6372 3.21149 15.4892 3.12842C15.3413 3.04534 15.1746 3.00116 15.005 3C14.7795 2.99947 14.5604 3.07485 14.383 3.214L14.313 3.274L6.81297 10.374C6.70023 10.4811 6.61395 10.6129 6.56096 10.7591C6.50797 10.9053 6.48973 11.0618 6.50767 11.2162C6.52562 11.3707 6.57927 11.5188 6.66437 11.649C6.74946 11.7791 6.86368 11.8876 6.99797 11.966L11.24 14.426L9.07697 19.616C8.98776 19.8277 8.97423 20.0637 9.03867 20.2842C9.10311 20.5047 9.24158 20.6963 9.43075 20.8266C9.61993 20.9569 9.84825 21.0181 10.0772 20.9998C10.3062 20.9815 10.5219 20.8848 10.688 20.726L18.188 13.624C18.3005 13.5169 18.3865 13.385 18.4393 13.2389C18.4921 13.0928 18.5102 12.9364 18.4922 12.7821C18.4741 12.6278 18.4204 12.4798 18.3354 12.3498C18.2503 12.2197 18.1362 12.1113 18.002 12.033Z" fill="white"/>
</svg>
