<svg width="70" height="70" viewBox="0 0 70 70" fill="none" xmlns="http://www.w3.org/2000/svg">
<g clip-path="url(#clip0_113_3048)">
<path d="M33.2673 0.384972L1.709 15.1287C1.49558 15.2266 1.31479 15.3837 1.18814 15.5814C1.06149 15.7791 0.994323 16.009 0.99463 16.2438C0.994937 16.4786 1.06271 16.7084 1.18987 16.9057C1.31704 17.1031 1.49824 17.2597 1.71191 17.3571L33.5182 31.9929C34.4573 32.4246 35.5423 32.4246 36.4815 31.9929L68.2877 17.3571C68.5015 17.26 68.683 17.1036 68.8104 16.9064C68.9378 16.7092 69.0059 16.4795 69.0065 16.2448C69.0071 16.01 68.9402 15.78 68.8138 15.5821C68.6875 15.3842 68.5069 15.2269 68.2936 15.1287L36.7323 0.384972C36.1899 0.131495 35.5985 0.00012207 34.9998 0.00012207C34.4011 0.00012207 33.8097 0.131495 33.2673 0.384972Z" fill="#FAAB5A"/>
<path opacity="0.64" d="M68.2936 34.055L61.7748 31.01C61.308 30.7919 60.7992 30.6781 60.2839 30.6766C59.7686 30.6751 59.2592 30.7859 58.7911 31.0013L36.4815 41.2679C36.0168 41.4816 35.5113 41.5922 34.9998 41.5922C34.4883 41.5922 33.9829 41.4816 33.5182 41.2679L11.2057 31.0013C10.7379 30.7863 10.229 30.6757 9.71428 30.6773C9.19954 30.6788 8.69129 30.7923 8.22483 31.01L1.70608 34.055C1.49279 34.1531 1.3122 34.3105 1.18581 34.5084C1.05942 34.7062 0.992554 34.9363 0.993168 35.171C0.993783 35.4058 1.06185 35.6355 1.18928 35.8327C1.3167 36.0299 1.49812 36.1863 1.71192 36.2833L33.5182 50.9162C33.9826 51.1311 34.4881 51.2423 34.9998 51.2423C35.5115 51.2423 36.0171 51.1311 36.4815 50.9162L68.2877 36.2833C68.5015 36.1863 68.683 36.0299 68.8104 35.8327C68.9378 35.6355 69.0059 35.4058 69.0065 35.171C69.0071 34.9363 68.9402 34.7062 68.8138 34.5084C68.6875 34.3105 68.5069 34.1531 68.2936 34.055Z" fill="#FFD4A1"/>
<path d="M68.2938 52.815L61.7751 49.77C61.3082 49.5519 60.7995 49.4381 60.2842 49.4366C59.7689 49.4351 59.2594 49.5459 58.7913 49.7613L36.4817 60.025C36.017 60.2387 35.5116 60.3493 35.0001 60.3493C34.4886 60.3493 33.9831 60.2387 33.5184 60.025L11.2059 49.7583C10.7382 49.5434 10.2293 49.4328 9.71453 49.4343C9.19978 49.4359 8.69153 49.5494 8.22507 49.7671L1.70632 52.815C1.49385 52.9135 1.31408 53.0708 1.18829 53.2684C1.0625 53.4659 0.995972 53.6954 0.996586 53.9296C0.9972 54.1638 1.06493 54.3929 1.19176 54.5897C1.31858 54.7866 1.49918 54.943 1.71216 55.0404L33.5184 69.6762C34.4576 70.1079 35.5426 70.1079 36.4817 69.6762L68.288 55.0404C68.501 54.943 68.6816 54.7866 68.8084 54.5897C68.9352 54.3929 69.0029 54.1638 69.0036 53.9296C69.0042 53.6954 68.9376 53.4659 68.8119 53.2684C68.6861 53.0708 68.5063 52.9135 68.2938 52.815Z" fill="#FFD14D"/>
</g>
<defs>
<clipPath id="clip0_113_3048">
<rect width="70" height="70" fill="white"/>
</clipPath>
</defs>
</svg>
