<svg width="70" height="70" viewBox="0 0 70 70" fill="none" xmlns="http://www.w3.org/2000/svg">
<g opacity="0.7" clip-path="url(#clip0_113_3014)">
<path d="M52.5 29.1667H70L61.25 17.5L52.5 29.1667ZM52.5 40.8333H70L61.25 52.5L52.5 40.8333Z" fill="#FFBD00"/>
<path d="M2.91667 0H20.4167V70H2.91667C2.14312 70 1.40125 69.6927 0.85427 69.1457C0.307289 68.5988 0 67.8569 0 67.0833V2.91667C0 2.14312 0.307289 1.40125 0.85427 0.85427C1.40125 0.307289 2.14312 0 2.91667 0Z" fill="#F88612"/>
<path d="M26.25 0H43.75C44.5235 0 45.2654 0.307289 45.8124 0.85427C46.3594 1.40125 46.6667 2.14312 46.6667 2.91667V67.0833C46.6667 67.8569 46.3594 68.5988 45.8124 69.1457C45.2654 69.6927 44.5235 70 43.75 70H26.25V0Z" fill="#FFC278"/>
</g>
<defs>
<clipPath id="clip0_113_3014">
<rect width="70" height="70" fill="white"/>
</clipPath>
</defs>
</svg>
