<svg width="70" height="74" viewBox="0 0 70 74" fill="none" xmlns="http://www.w3.org/2000/svg">
<path d="M66.5 73.5404H35C34.0717 73.5404 33.1815 73.2176 32.5251 72.6429C31.8687 72.0683 31.5 71.2889 31.5 70.4762V64.3479C31.5 63.5352 31.8687 62.7558 32.5251 62.1812C33.1815 61.6065 34.0717 61.2837 35 61.2837H66.5C67.4283 61.2837 68.3185 61.6065 68.9749 62.1812C69.6313 62.7558 70 63.5352 70 64.3479V70.4762C70 71.2889 69.6313 72.0683 68.9749 72.6429C68.3185 73.2176 67.4283 73.5404 66.5 73.5404Z" fill="#FFD4A1"/>
<path d="M66.5 0H3.5C2.57174 0 1.6815 0.32283 1.02512 0.897476C0.368746 1.47212 0 2.25151 0 3.06418V9.19255C0 10.0052 0.368746 10.7846 1.02512 11.3593C1.6815 11.9339 2.57174 12.2567 3.5 12.2567H66.5C67.4283 12.2567 68.3185 11.9339 68.9749 11.3593C69.6313 10.7846 70 10.0052 70 9.19255V3.06418C70 2.25151 69.6313 1.47212 68.9749 0.897476C68.3185 0.32283 67.4283 0 66.5 0Z" fill="#FFD14D"/>
<path d="M66.5 18.3851H3.5C2.57174 18.3851 1.6815 18.708 1.02512 19.2826C0.368746 19.8573 0 20.6366 0 21.4493V52.0911C0 52.9038 0.368746 53.6832 1.02512 54.2578C1.6815 54.8325 2.57174 55.1553 3.5 55.1553H66.5C67.4283 55.1553 68.3185 54.8325 68.9749 54.2578C69.6313 53.6832 70 52.9038 70 52.0911V21.4493C70 20.6366 69.6313 19.8573 68.9749 19.2826C68.3185 18.708 67.4283 18.3851 66.5 18.3851Z" fill="#FAAB5A"/>
</svg>
