<svg width="20" height="21" viewBox="0 0 20 21" fill="none" xmlns="http://www.w3.org/2000/svg">
<path d="M20 10.9981C20 16.5209 15.5228 20.9981 10 20.9981C4.47715 20.9981 0 16.5209 0 10.9981C0 5.47524 4.47715 0.998093 10 0.998093C15.5228 0.998093 20 5.47524 20 10.9981Z" fill="#F00500"/>
<path fill-rule="evenodd" clip-rule="evenodd" d="M7.59113 14.8812H5.94152C5.5949 14.8812 5.42367 14.8812 5.31925 14.8144C5.2065 14.7413 5.13758 14.6202 5.12923 14.4866C5.12297 14.3634 5.20858 14.213 5.37981 13.9123L9.4529 6.73294C9.62621 6.42807 9.71392 6.27565 9.82459 6.21926C9.94362 6.15872 10.0856 6.15872 10.2047 6.21926C10.3153 6.27565 10.403 6.42807 10.5763 6.73294L11.4137 8.19463L11.418 8.20209C11.6051 8.52916 11.7001 8.69501 11.7415 8.86908C11.7874 9.0591 11.7874 9.25956 11.7415 9.44958C11.6998 9.62499 11.6058 9.79205 11.4158 10.1241L9.27626 13.9061L9.27071 13.9158C9.08227 14.2455 8.98678 14.4126 8.85443 14.5388C8.71036 14.6766 8.53706 14.7768 8.34704 14.8332C8.17373 14.8812 7.97953 14.8812 7.59113 14.8812Z" fill="white"/>
<path fill-rule="evenodd" clip-rule="evenodd" d="M11.7567 14.8812H14.1205C14.4692 14.8812 14.6445 14.8812 14.749 14.8123C14.8617 14.7392 14.9328 14.616 14.939 14.4824C14.9451 14.3632 14.8613 14.2187 14.6972 13.9355C14.6916 13.9258 14.6858 13.916 14.68 13.9061L13.4961 11.8806L13.4826 11.8578C13.3162 11.5764 13.2322 11.4344 13.1244 11.3794C13.0054 11.3189 12.8655 11.3189 12.7465 11.3794C12.6379 11.4358 12.5502 11.5841 12.3769 11.8827L11.1971 13.9081L11.1931 13.9151C11.0204 14.2132 10.9341 14.3622 10.9403 14.4845C10.9486 14.6181 11.0175 14.7413 11.1303 14.8144C11.2326 14.8812 11.408 14.8812 11.7567 14.8812Z" fill="white"/>
</svg>
