<svg width="40" height="41" viewBox="0 0 40 41" fill="none" xmlns="http://www.w3.org/2000/svg">
<rect y="0.5" width="40" height="40" rx="8" fill="#FFCC40"/>
<path fill-rule="evenodd" clip-rule="evenodd" d="M28.2531 15.997C28.0063 13.4368 25.7962 12.5785 23.0058 12.3341L23.0057 8.78268L20.8435 8.78305L20.8436 12.2408C20.2759 12.2408 19.695 12.252 19.1179 12.2635L19.1182 8.78283L16.9577 8.78276L16.9569 12.3331C16.4889 12.3427 16.0292 12.3514 15.5811 12.3517L15.5808 12.3407L12.5993 12.3396L12.5999 14.6484C12.5999 14.6484 14.1962 14.618 14.1697 14.6474C15.0453 14.6476 15.3308 15.1558 15.4131 15.5946L15.4133 19.6404C15.4737 19.6407 15.5526 19.6432 15.6418 19.6555L15.414 19.6556L15.4129 25.3235C15.3745 25.599 15.2125 26.0384 14.6008 26.0395C14.6284 26.064 13.0294 26.039 13.0294 26.039L12.6 28.6212L15.4137 28.621C15.7314 28.6214 16.0461 28.6248 16.3572 28.6282L16.3573 28.6282C16.5588 28.6304 16.7589 28.6325 16.9574 28.6339L16.9585 32.2262L19.1179 32.2266L19.1184 28.6726C19.7107 28.685 20.2845 28.6897 20.8446 28.6892L20.8437 32.2267L23.0054 32.2264L23.0061 28.641C26.6403 28.4325 29.1845 27.5168 29.4994 24.1048C29.7544 21.3568 28.4623 20.1304 26.3991 19.6344C27.6522 18.9951 28.4357 17.8706 28.2525 15.9971L28.2531 15.997ZM25.2279 23.6773C25.2285 26.141 21.3575 26.0866 19.588 26.0618C19.4295 26.0596 19.2879 26.0576 19.1674 26.0577L19.168 21.2987C19.3153 21.2988 19.4941 21.2945 19.6968 21.2898C21.5104 21.2469 25.2271 21.1592 25.2285 23.6771L25.2279 23.6773ZM19.5237 19.1245C21.0011 19.1487 24.2214 19.2014 24.222 16.963C24.2223 14.6732 21.1242 14.7555 19.6111 14.7957C19.441 14.8002 19.2909 14.8042 19.1676 14.8042L19.1674 19.1203C19.2693 19.1203 19.3893 19.1223 19.5237 19.1245Z" fill="#F4FFFC"/>
</svg>
