<svg width="17" height="17" viewBox="0 0 17 17" fill="none" xmlns="http://www.w3.org/2000/svg">
<path fill-rule="evenodd" clip-rule="evenodd" d="M11.2002 0.635498C10.0956 0.635498 9.2002 1.53093 9.2002 2.6355V5.6355C9.2002 6.7401 10.0956 7.6355 11.2002 7.6355H14.2002C15.3048 7.6355 16.2002 6.7401 16.2002 5.6355V2.6355C16.2002 1.53093 15.3048 0.635498 14.2002 0.635498H11.2002ZM11.2002 9.6355C10.0956 9.6355 9.2002 10.5309 9.2002 11.6355V14.6355C9.2002 15.7401 10.0956 16.6355 11.2002 16.6355H14.2002C15.3048 16.6355 16.2002 15.7401 16.2002 14.6355V11.6355C16.2002 10.5309 15.3048 9.6355 14.2002 9.6355H11.2002ZM0.200195 11.6355C0.200195 10.5309 1.09563 9.6355 2.2002 9.6355H5.2002C6.3048 9.6355 7.2002 10.5309 7.2002 11.6355V14.6355C7.2002 15.7401 6.3048 16.6355 5.2002 16.6355H2.2002C1.09563 16.6355 0.200195 15.7401 0.200195 14.6355V11.6355ZM2.2002 0.635498C1.09563 0.635498 0.200195 1.53093 0.200195 2.6355V5.6355C0.200195 6.7401 1.09563 7.6355 2.2002 7.6355H5.2002C6.3048 7.6355 7.2002 6.7401 7.2002 5.6355V2.6355C7.2002 1.53093 6.3048 0.635498 5.2002 0.635498H2.2002Z" fill="#F7931A"/>
</svg>
