<svg width="17" height="17" viewBox="0 0 17 17" fill="none" xmlns="http://www.w3.org/2000/svg">
<path fill-rule="evenodd" clip-rule="evenodd" d="M0.200195 2.6355C0.200195 1.53093 1.09563 0.635498 2.2002 0.635498C3.30477 0.635498 4.2002 1.53093 4.2002 2.6355C4.2002 3.74007 3.30477 4.6355 2.2002 4.6355C1.09563 4.6355 0.200195 3.74007 0.200195 2.6355ZM0.200195 8.6355C0.200195 7.5309 1.09563 6.6355 2.2002 6.6355C3.30477 6.6355 4.2002 7.5309 4.2002 8.6355C4.2002 9.7401 3.30477 10.6355 2.2002 10.6355C1.09563 10.6355 0.200195 9.7401 0.200195 8.6355ZM2.2002 12.6355C1.09563 12.6355 0.200195 13.5309 0.200195 14.6355C0.200195 15.7401 1.09563 16.6355 2.2002 16.6355C3.30477 16.6355 4.2002 15.7401 4.2002 14.6355C4.2002 13.5309 3.30477 12.6355 2.2002 12.6355ZM6.2002 2.6355C6.2002 1.53093 7.0956 0.635498 8.2002 0.635498C9.3048 0.635498 10.2002 1.53093 10.2002 2.6355C10.2002 3.74007 9.3048 4.6355 8.2002 4.6355C7.0956 4.6355 6.2002 3.74007 6.2002 2.6355ZM8.2002 6.6355C7.0956 6.6355 6.2002 7.5309 6.2002 8.6355C6.2002 9.7401 7.0956 10.6355 8.2002 10.6355C9.3048 10.6355 10.2002 9.7401 10.2002 8.6355C10.2002 7.5309 9.3048 6.6355 8.2002 6.6355ZM6.2002 14.6355C6.2002 13.5309 7.0956 12.6355 8.2002 12.6355C9.3048 12.6355 10.2002 13.5309 10.2002 14.6355C10.2002 15.7401 9.3048 16.6355 8.2002 16.6355C7.0956 16.6355 6.2002 15.7401 6.2002 14.6355ZM14.2002 0.635498C13.0956 0.635498 12.2002 1.53093 12.2002 2.6355C12.2002 3.74007 13.0956 4.6355 14.2002 4.6355C15.3048 4.6355 16.2002 3.74007 16.2002 2.6355C16.2002 1.53093 15.3048 0.635498 14.2002 0.635498ZM12.2002 8.6355C12.2002 7.5309 13.0956 6.6355 14.2002 6.6355C15.3048 6.6355 16.2002 7.5309 16.2002 8.6355C16.2002 9.7401 15.3048 10.6355 14.2002 10.6355C13.0956 10.6355 12.2002 9.7401 12.2002 8.6355ZM14.2002 12.6355C13.0956 12.6355 12.2002 13.5309 12.2002 14.6355C12.2002 15.7401 13.0956 16.6355 14.2002 16.6355C15.3048 16.6355 16.2002 15.7401 16.2002 14.6355C16.2002 13.5309 15.3048 12.6355 14.2002 12.6355Z" fill="#F7931A"/>
</svg>
