<svg width="25" height="24" viewBox="0 0 25 24" fill="none" xmlns="http://www.w3.org/2000/svg">
<path fill-rule="evenodd" clip-rule="evenodd" d="M9.7648 3.18282C9.31692 2.76396 8.625 3.11118 8.625 3.75479V5.43445C5.89802 6.11074 3.875 8.56836 3.875 11.5C3.875 14.6357 6.18901 17.2282 9.20343 17.6802C9.61307 17.7417 9.99494 17.4594 10.0564 17.0498C10.1178 16.6401 9.83551 16.2583 9.42588 16.1968C7.13132 15.8528 5.375 13.8787 5.375 11.5C5.375 9.40662 6.73498 7.62724 8.625 6.99556V8.24533C8.625 8.85808 9.25978 9.2145 9.71677 8.85835L12.3359 6.8172C12.7007 6.53288 12.7243 5.95054 12.3839 5.6322L9.7648 3.18282ZM15.1936 5.95024C15.2551 5.54061 15.6369 5.25833 16.0466 5.31976C19.061 5.77178 21.375 8.36431 21.375 11.5C21.375 14.4316 19.352 16.8893 16.625 17.5656V19.2452C16.625 19.8888 15.9331 20.236 15.4852 19.8172L12.8661 17.3678C12.5257 17.0495 12.5493 16.4671 12.9141 16.1828L15.5332 14.1416C15.9902 13.7855 16.625 14.1419 16.625 14.7547V16.0044C18.515 15.3728 19.875 13.5934 19.875 11.5C19.875 9.12135 18.1187 7.14725 15.8241 6.80317C15.4145 6.74174 15.1322 6.35988 15.1936 5.95024Z" fill="#16161A"/>
</svg>
