<svg width="54" height="20" viewBox="0 0 54 20" fill="none" xmlns="http://www.w3.org/2000/svg">
<path fill-rule="evenodd" clip-rule="evenodd" d="M8.49668 6.82181C7.53033 5.73967 5.91887 5.44858 4.70809 6.4395C3.49732 7.43041 3.32686 9.08717 4.27769 10.2591L8.49668 14.1663L12.7157 10.2591C13.6665 9.08717 13.5169 7.41999 12.2853 6.4395C11.0537 5.45901 9.46303 5.73967 8.49668 6.82181Z" stroke="black" stroke-width="1.5" stroke-linecap="round" stroke-linejoin="round"/>
<path d="M27.1719 7.4929C27.1188 7.02225 26.9001 6.65767 26.5156 6.39915C26.1312 6.13731 25.6473 6.00639 25.0639 6.00639C24.6463 6.00639 24.285 6.07268 23.9801 6.20526C23.6752 6.33452 23.4382 6.51349 23.2692 6.74219C23.1035 6.96757 23.0206 7.22443 23.0206 7.51278C23.0206 7.75473 23.0769 7.96354 23.1896 8.1392C23.3056 8.31487 23.4564 8.46236 23.642 8.58168C23.831 8.69768 24.0331 8.79545 24.2486 8.875C24.464 8.95123 24.6712 9.0142 24.87 9.06392L25.8643 9.32244C26.1892 9.40199 26.5223 9.50971 26.8636 9.6456C27.205 9.78149 27.5215 9.96046 27.8132 10.1825C28.1049 10.4046 28.3402 10.6797 28.5192 11.0078C28.7015 11.3359 28.7926 11.7287 28.7926 12.1861C28.7926 12.7628 28.6435 13.2749 28.3452 13.7223C28.0502 14.1697 27.621 14.5227 27.0575 14.7812C26.4974 15.0398 25.8196 15.169 25.0241 15.169C24.2618 15.169 23.6023 15.0481 23.0455 14.8061C22.4886 14.5642 22.0528 14.2211 21.7379 13.777C21.4231 13.3295 21.2491 12.7992 21.2159 12.1861H22.7571C22.7869 12.554 22.9063 12.8606 23.1151 13.1058C23.3272 13.3478 23.5973 13.5284 23.9254 13.6477C24.2569 13.7637 24.6198 13.8217 25.0142 13.8217C25.4484 13.8217 25.8345 13.7538 26.1726 13.6179C26.514 13.4787 26.7824 13.2865 26.978 13.0412C27.1735 12.7926 27.2713 12.5026 27.2713 12.1712C27.2713 11.8696 27.1851 11.6226 27.0128 11.4304C26.8438 11.2382 26.6134 11.0791 26.3217 10.9531C26.0334 10.8272 25.7069 10.7161 25.3423 10.62L24.1392 10.2919C23.3239 10.0698 22.6776 9.74337 22.2003 9.3125C21.7263 8.88163 21.4893 8.31155 21.4893 7.60227C21.4893 7.01562 21.6484 6.50355 21.9666 6.06605C22.2848 5.62855 22.7157 5.28883 23.2592 5.04688C23.8028 4.80161 24.416 4.67898 25.0987 4.67898C25.7881 4.67898 26.3963 4.79995 26.9233 5.0419C27.4536 5.28385 27.8712 5.61695 28.1761 6.04119C28.4811 6.46212 28.6402 6.94602 28.6534 7.4929H27.1719ZM32.7314 15.169C32.2475 15.169 31.81 15.0795 31.4189 14.9006C31.0278 14.7183 30.7179 14.4548 30.4892 14.1101C30.2638 13.7654 30.1511 13.3428 30.1511 12.8423C30.1511 12.4115 30.234 12.0568 30.3997 11.7784C30.5654 11.5 30.7891 11.2796 31.0708 11.1172C31.3526 10.9548 31.6674 10.8321 32.0154 10.7493C32.3635 10.6664 32.7181 10.6035 33.0794 10.5604C33.5368 10.5073 33.908 10.4643 34.193 10.4311C34.478 10.3946 34.6852 10.3366 34.8145 10.2571C34.9437 10.1776 35.0083 10.0483 35.0083 9.86932V9.83452C35.0083 9.40033 34.8857 9.06392 34.6404 8.82528C34.3985 8.58665 34.0372 8.46733 33.5566 8.46733C33.0562 8.46733 32.6618 8.57836 32.3734 8.80043C32.0884 9.01918 31.8912 9.26278 31.7818 9.53125L30.3848 9.21307C30.5505 8.74905 30.7924 8.37453 31.1106 8.08949C31.4321 7.80114 31.8017 7.59233 32.2193 7.46307C32.6369 7.33049 33.0761 7.2642 33.5368 7.2642C33.8417 7.2642 34.1648 7.30066 34.5062 7.37358C34.8509 7.44318 35.1724 7.57244 35.4707 7.76136C35.7723 7.95028 36.0192 8.22041 36.2115 8.57173C36.4037 8.91974 36.4998 9.37216 36.4998 9.92898V15H35.0481V13.956H34.9885C34.8923 14.1482 34.7482 14.3371 34.5559 14.5227C34.3637 14.7083 34.1168 14.8625 33.8152 14.9851C33.5136 15.1077 33.1523 15.169 32.7314 15.169ZM33.0545 13.9759C33.4655 13.9759 33.8168 13.8946 34.1085 13.7322C34.4035 13.5698 34.6272 13.3577 34.7797 13.0959C34.9354 12.8307 35.0133 12.5473 35.0133 12.2457V11.2614C34.9603 11.3144 34.8575 11.3641 34.7051 11.4105C34.5559 11.4536 34.3852 11.4917 34.193 11.5249C34.0008 11.5547 33.8135 11.5829 33.6312 11.6094C33.4489 11.6326 33.2965 11.6525 33.1738 11.669C32.8855 11.7055 32.622 11.7668 32.3833 11.853C32.148 11.9392 31.9591 12.0634 31.8166 12.2259C31.6774 12.3849 31.6078 12.5971 31.6078 12.8622C31.6078 13.2301 31.7437 13.5085 32.0154 13.6974C32.2872 13.883 32.6336 13.9759 33.0545 13.9759ZM44.739 7.36364L41.9698 15H40.3789L37.6048 7.36364H39.2006L41.1346 13.2401H41.2141L43.1431 7.36364H44.739ZM49.1674 15.1541C48.4151 15.1541 47.7671 14.9934 47.2235 14.6719C46.6833 14.3471 46.2657 13.8913 45.9707 13.3047C45.679 12.7147 45.5332 12.0237 45.5332 11.2315C45.5332 10.4493 45.679 9.75994 45.9707 9.16335C46.2657 8.56676 46.6767 8.10109 47.2037 7.76633C47.734 7.43158 48.3538 7.2642 49.063 7.2642C49.4939 7.2642 49.9115 7.33546 50.3159 7.47798C50.7202 7.6205 51.0832 7.84422 51.4047 8.14915C51.7261 8.45407 51.9797 8.85014 52.1653 9.33736C52.3509 9.82126 52.4437 10.4096 52.4437 11.1023V11.6293H46.3734V10.5156H50.987C50.987 10.1245 50.9075 9.77817 50.7484 9.47656C50.5893 9.17164 50.3656 8.93134 50.0772 8.75568C49.7922 8.58002 49.4574 8.49219 49.073 8.49219C48.6554 8.49219 48.2908 8.59493 47.9792 8.80043C47.671 9.0026 47.4324 9.26776 47.2633 9.59588C47.0976 9.92069 47.0147 10.2737 47.0147 10.6548V11.5249C47.0147 12.0353 47.1042 12.4695 47.2832 12.8274C47.4655 13.1854 47.719 13.4588 48.0439 13.6477C48.3687 13.8333 48.7482 13.9261 49.1824 13.9261C49.4641 13.9261 49.7209 13.8864 49.9529 13.8068C50.185 13.724 50.3855 13.6013 50.5545 13.4389C50.7235 13.2765 50.8528 13.076 50.9423 12.8374L52.3493 13.0909C52.2366 13.5052 52.0344 13.8681 51.7427 14.1797C51.4544 14.4879 51.0914 14.7282 50.6539 14.9006C50.2198 15.0696 49.7243 15.1541 49.1674 15.1541Z" fill="black"/>
</svg>
