<svg width="60" height="20" viewBox="0 0 60 20" fill="none" xmlns="http://www.w3.org/2000/svg">
<path d="M6.66666 5.16699H4.99999C4.26361 5.16699 3.66666 5.76395 3.66666 6.50033V13.5003C3.66666 14.2367 4.26361 14.8337 4.99999 14.8337H12C12.7364 14.8337 13.3333 14.2367 13.3333 13.5003V11.8337" stroke="black" stroke-width="1.5" stroke-linecap="round" stroke-linejoin="round"/>
<path d="M13.3333 8.16699V5.16699H10.3333" stroke="#141414" stroke-width="1.5" stroke-linecap="round" stroke-linejoin="round"/>
<path d="M13.1667 5.33301L8.33334 10.1663" stroke="#141414" stroke-width="1.5" stroke-linecap="round" stroke-linejoin="round"/>
<path d="M27.1719 7.4929C27.1188 7.02225 26.9001 6.65767 26.5156 6.39915C26.1312 6.13731 25.6473 6.00639 25.0639 6.00639C24.6463 6.00639 24.285 6.07268 23.9801 6.20526C23.6752 6.33452 23.4382 6.51349 23.2692 6.74219C23.1035 6.96757 23.0206 7.22443 23.0206 7.51278C23.0206 7.75473 23.0769 7.96354 23.1896 8.1392C23.3056 8.31487 23.4564 8.46236 23.642 8.58168C23.831 8.69768 24.0331 8.79545 24.2486 8.875C24.464 8.95123 24.6712 9.0142 24.87 9.06392L25.8643 9.32244C26.1892 9.40199 26.5223 9.50971 26.8636 9.6456C27.205 9.78149 27.5215 9.96046 27.8132 10.1825C28.1049 10.4046 28.3402 10.6797 28.5192 11.0078C28.7015 11.3359 28.7926 11.7287 28.7926 12.1861C28.7926 12.7628 28.6435 13.2749 28.3452 13.7223C28.0502 14.1697 27.621 14.5227 27.0575 14.7812C26.4974 15.0398 25.8196 15.169 25.0241 15.169C24.2618 15.169 23.6023 15.0481 23.0455 14.8061C22.4886 14.5642 22.0528 14.2211 21.7379 13.777C21.4231 13.3295 21.2491 12.7992 21.2159 12.1861H22.7571C22.7869 12.554 22.9063 12.8606 23.1151 13.1058C23.3272 13.3478 23.5973 13.5284 23.9254 13.6477C24.2569 13.7637 24.6198 13.8217 25.0142 13.8217C25.4484 13.8217 25.8345 13.7538 26.1726 13.6179C26.514 13.4787 26.7824 13.2865 26.978 13.0412C27.1735 12.7926 27.2713 12.5026 27.2713 12.1712C27.2713 11.8696 27.1851 11.6226 27.0128 11.4304C26.8438 11.2382 26.6134 11.0791 26.3217 10.9531C26.0334 10.8272 25.7069 10.7161 25.3423 10.62L24.1392 10.2919C23.3239 10.0698 22.6776 9.74337 22.2003 9.3125C21.7263 8.88163 21.4893 8.31155 21.4893 7.60227C21.4893 7.01562 21.6484 6.50355 21.9666 6.06605C22.2848 5.62855 22.7157 5.28883 23.2592 5.04688C23.8028 4.80161 24.416 4.67898 25.0987 4.67898C25.7881 4.67898 26.3963 4.79995 26.9233 5.0419C27.4536 5.28385 27.8712 5.61695 28.1761 6.04119C28.4811 6.46212 28.6402 6.94602 28.6534 7.4929H27.1719ZM31.9956 10.4659V15H30.5091V4.81818H31.9757V8.60653H32.0701C32.2491 8.19555 32.5225 7.86908 32.8904 7.62713C33.2583 7.38518 33.7389 7.2642 34.3322 7.2642C34.8559 7.2642 35.3133 7.37192 35.7044 7.58736C36.0988 7.80279 36.4037 8.12429 36.6191 8.55185C36.8379 8.97609 36.9473 9.50639 36.9473 10.1428V15H35.4608V10.3217C35.4608 9.7616 35.3166 9.32741 35.0282 9.01918C34.7399 8.70762 34.3388 8.55185 33.8251 8.55185C33.4738 8.55185 33.1589 8.62642 32.8805 8.77557C32.6054 8.92472 32.3883 9.14347 32.2292 9.43182C32.0734 9.71686 31.9956 10.0616 31.9956 10.4659ZM41.1532 15.169C40.6693 15.169 40.2318 15.0795 39.8407 14.9006C39.4496 14.7183 39.1397 14.4548 38.911 14.1101C38.6857 13.7654 38.573 13.3428 38.573 12.8423C38.573 12.4115 38.6558 12.0568 38.8216 11.7784C38.9873 11.5 39.211 11.2796 39.4927 11.1172C39.7744 10.9548 40.0893 10.8321 40.4373 10.7493C40.7853 10.6664 41.14 10.6035 41.5012 10.5604C41.9586 10.5073 42.3298 10.4643 42.6149 10.4311C42.8999 10.3946 43.1071 10.3366 43.2363 10.2571C43.3656 10.1776 43.4302 10.0483 43.4302 9.86932V9.83452C43.4302 9.40033 43.3076 9.06392 43.0623 8.82528C42.8204 8.58665 42.4591 8.46733 41.9785 8.46733C41.478 8.46733 41.0836 8.57836 40.7953 8.80043C40.5102 9.01918 40.313 9.26278 40.2037 9.53125L38.8066 9.21307C38.9724 8.74905 39.2143 8.37453 39.5325 8.08949C39.854 7.80114 40.2235 7.59233 40.6412 7.46307C41.0588 7.33049 41.4979 7.2642 41.9586 7.2642C42.2636 7.2642 42.5867 7.30066 42.9281 7.37358C43.2728 7.44318 43.5943 7.57244 43.8926 7.76136C44.1942 7.95028 44.4411 8.22041 44.6333 8.57173C44.8256 8.91974 44.9217 9.37216 44.9217 9.92898V15H43.47V13.956H43.4103C43.3142 14.1482 43.17 14.3371 42.9778 14.5227C42.7856 14.7083 42.5386 14.8625 42.237 14.9851C41.9354 15.1077 41.5742 15.169 41.1532 15.169ZM41.4764 13.9759C41.8874 13.9759 42.2387 13.8946 42.5304 13.7322C42.8253 13.5698 43.0491 13.3577 43.2015 13.0959C43.3573 12.8307 43.4352 12.5473 43.4352 12.2457V11.2614C43.3822 11.3144 43.2794 11.3641 43.127 11.4105C42.9778 11.4536 42.8071 11.4917 42.6149 11.5249C42.4226 11.5547 42.2354 11.5829 42.0531 11.6094C41.8708 11.6326 41.7183 11.6525 41.5957 11.669C41.3074 11.7055 41.0439 11.7668 40.8052 11.853C40.5699 11.9392 40.381 12.0634 40.2385 12.2259C40.0993 12.3849 40.0297 12.5971 40.0297 12.8622C40.0297 13.2301 40.1655 13.5085 40.4373 13.6974C40.7091 13.883 41.0555 13.9759 41.4764 13.9759ZM46.9016 15V7.36364H48.3384V8.5767H48.418C48.5572 8.16572 48.8024 7.84257 49.1538 7.60724C49.5084 7.36861 49.9094 7.24929 50.3569 7.24929C50.4497 7.24929 50.5591 7.2526 50.685 7.25923C50.8143 7.26586 50.9154 7.27415 50.9883 7.28409V8.70597C50.9286 8.68939 50.8226 8.67116 50.6701 8.65128C50.5176 8.62808 50.3652 8.61648 50.2127 8.61648C49.8614 8.61648 49.5482 8.69105 49.2731 8.8402C49.0013 8.98603 48.7859 9.18987 48.6268 9.4517C48.4677 9.71023 48.3881 10.0052 48.3881 10.3366V15H46.9016ZM55.2924 15.1541C54.5401 15.1541 53.8921 14.9934 53.3485 14.6719C52.8083 14.3471 52.3907 13.8913 52.0957 13.3047C51.804 12.7147 51.6582 12.0237 51.6582 11.2315C51.6582 10.4493 51.804 9.75994 52.0957 9.16335C52.3907 8.56676 52.8017 8.10109 53.3287 7.76633C53.859 7.43158 54.4788 7.2642 55.188 7.2642C55.6189 7.2642 56.0365 7.33546 56.4409 7.47798C56.8452 7.6205 57.2082 7.84422 57.5297 8.14915C57.8511 8.45407 58.1047 8.85014 58.2903 9.33736C58.4759 9.82126 58.5687 10.4096 58.5687 11.1023V11.6293H52.4984V10.5156H57.112C57.112 10.1245 57.0325 9.77817 56.8734 9.47656C56.7143 9.17164 56.4906 8.93134 56.2022 8.75568C55.9172 8.58002 55.5824 8.49219 55.198 8.49219C54.7804 8.49219 54.4158 8.59493 54.1042 8.80043C53.796 9.0026 53.5574 9.26776 53.3883 9.59588C53.2226 9.92069 53.1397 10.2737 53.1397 10.6548V11.5249C53.1397 12.0353 53.2292 12.4695 53.4082 12.8274C53.5905 13.1854 53.844 13.4588 54.1689 13.6477C54.4937 13.8333 54.8732 13.9261 55.3074 13.9261C55.5891 13.9261 55.8459 13.8864 56.0779 13.8068C56.31 13.724 56.5105 13.6013 56.6795 13.4389C56.8485 13.2765 56.9778 13.076 57.0673 12.8374L58.4743 13.0909C58.3616 13.5052 58.1594 13.8681 57.8677 14.1797C57.5794 14.4879 57.2164 14.7282 56.7789 14.9006C56.3448 15.0696 55.8493 15.1541 55.2924 15.1541Z" fill="black"/>
</svg>
