<svg width="171" height="40" viewBox="0 0 171 40" fill="none" xmlns="http://www.w3.org/2000/svg">
<g filter="url(#filter0_d_62_31464)">
<rect x="2" y="1" width="167" height="36" rx="8" fill="white"/>
<path d="M21.9583 13.7913C21.9583 13.3311 22.3314 12.958 22.7917 12.958H25.7083C26.1686 12.958 26.5417 13.3311 26.5417 13.7913V16.708C26.5417 17.1682 26.1686 17.5413 25.7083 17.5413H22.7917C22.3314 17.5413 21.9583 17.1682 21.9583 16.708V13.7913Z" stroke="black" stroke-width="1.5" stroke-linecap="round" stroke-linejoin="round"/>
<path d="M21.9583 21.2913C21.9583 20.8311 22.3314 20.458 22.7917 20.458H25.7083C26.1686 20.458 26.5417 20.8311 26.5417 21.2913V24.208C26.5417 24.6682 26.1686 25.0413 25.7083 25.0413H22.7917C22.3314 25.0413 21.9583 24.6682 21.9583 24.208V21.2913Z" stroke="black" stroke-width="1.5" stroke-linecap="round" stroke-linejoin="round"/>
<path d="M29.4583 13.7913C29.4583 13.3311 29.8314 12.958 30.2917 12.958H33.2083C33.6686 12.958 34.0417 13.3311 34.0417 13.7913V16.708C34.0417 17.1682 33.6686 17.5413 33.2083 17.5413H30.2917C29.8314 17.5413 29.4583 17.1682 29.4583 16.708V13.7913Z" stroke="black" stroke-width="1.5" stroke-linecap="round" stroke-linejoin="round"/>
<path d="M29.4583 21.2913C29.4583 20.8311 29.8314 20.458 30.2917 20.458H33.2083C33.6686 20.458 34.0417 20.8311 34.0417 21.2913V24.208C34.0417 24.6682 33.6686 25.0413 33.2083 25.0413H30.2917C29.8314 25.0413 29.4583 24.6682 29.4583 24.208V21.2913Z" stroke="black" stroke-width="1.5" stroke-linecap="round" stroke-linejoin="round"/>
<path d="M52.6719 16.4929C52.6188 16.0223 52.4001 15.6577 52.0156 15.3991C51.6312 15.1373 51.1473 15.0064 50.5639 15.0064C50.1463 15.0064 49.785 15.0727 49.4801 15.2053C49.1752 15.3345 48.9382 15.5135 48.7692 15.7422C48.6035 15.9676 48.5206 16.2244 48.5206 16.5128C48.5206 16.7547 48.5769 16.9635 48.6896 17.1392C48.8056 17.3149 48.9564 17.4624 49.142 17.5817C49.331 17.6977 49.5331 17.7955 49.7486 17.875C49.964 17.9512 50.1712 18.0142 50.37 18.0639L51.3643 18.3224C51.6892 18.402 52.0223 18.5097 52.3636 18.6456C52.705 18.7815 53.0215 18.9605 53.3132 19.1825C53.6049 19.4046 53.8402 19.6797 54.0192 20.0078C54.2015 20.3359 54.2926 20.7287 54.2926 21.1861C54.2926 21.7628 54.1435 22.2749 53.8452 22.7223C53.5502 23.1697 53.121 23.5227 52.5575 23.7812C51.9974 24.0398 51.3196 24.169 50.5241 24.169C49.7618 24.169 49.1023 24.0481 48.5455 23.8061C47.9886 23.5642 47.5528 23.2211 47.2379 22.777C46.9231 22.3295 46.7491 21.7992 46.7159 21.1861H48.2571C48.2869 21.554 48.4063 21.8606 48.6151 22.1058C48.8272 22.3478 49.0973 22.5284 49.4254 22.6477C49.7569 22.7637 50.1198 22.8217 50.5142 22.8217C50.9484 22.8217 51.3345 22.7538 51.6726 22.6179C52.014 22.4787 52.2824 22.2865 52.478 22.0412C52.6735 21.7926 52.7713 21.5026 52.7713 21.1712C52.7713 20.8696 52.6851 20.6226 52.5128 20.4304C52.3438 20.2382 52.1134 20.0791 51.8217 19.9531C51.5334 19.8272 51.2069 19.7161 50.8423 19.62L49.6392 19.2919C48.8239 19.0698 48.1776 18.7434 47.7003 18.3125C47.2263 17.8816 46.9893 17.3116 46.9893 16.6023C46.9893 16.0156 47.1484 15.5036 47.4666 15.0661C47.7848 14.6286 48.2157 14.2888 48.7592 14.0469C49.3028 13.8016 49.916 13.679 50.5987 13.679C51.2881 13.679 51.8963 13.8 52.4233 14.0419C52.9536 14.2839 53.3712 14.617 53.6761 15.0412C53.9811 15.4621 54.1402 15.946 54.1534 16.4929H52.6719ZM57.4956 19.4659V24H56.0091V13.8182H57.4757V17.6065H57.5701C57.7491 17.1955 58.0225 16.8691 58.3904 16.6271C58.7583 16.3852 59.2389 16.2642 59.8322 16.2642C60.3559 16.2642 60.8133 16.3719 61.2044 16.5874C61.5988 16.8028 61.9037 17.1243 62.1191 17.5518C62.3379 17.9761 62.4473 18.5064 62.4473 19.1428V24H60.9608V19.3217C60.9608 18.7616 60.8166 18.3274 60.5282 18.0192C60.2399 17.7076 59.8388 17.5518 59.3251 17.5518C58.9738 17.5518 58.6589 17.6264 58.3805 17.7756C58.1054 17.9247 57.8883 18.1435 57.7292 18.4318C57.5734 18.7169 57.4956 19.0616 57.4956 19.4659ZM67.6475 24.1541C66.9316 24.1541 66.3069 23.9901 65.7733 23.6619C65.2396 23.3338 64.8253 22.8748 64.5304 22.2848C64.2354 21.6948 64.0879 21.0054 64.0879 20.2166C64.0879 19.4245 64.2354 18.7318 64.5304 18.1385C64.8253 17.5452 65.2396 17.0845 65.7733 16.7564C66.3069 16.4283 66.9316 16.2642 67.6475 16.2642C68.3635 16.2642 68.9882 16.4283 69.5218 16.7564C70.0555 17.0845 70.4698 17.5452 70.7647 18.1385C71.0597 18.7318 71.2072 19.4245 71.2072 20.2166C71.2072 21.0054 71.0597 21.6948 70.7647 22.2848C70.4698 22.8748 70.0555 23.3338 69.5218 23.6619C68.9882 23.9901 68.3635 24.1541 67.6475 24.1541ZM67.6525 22.9062C68.1165 22.9062 68.501 22.7836 68.8059 22.5384C69.1109 22.2931 69.3362 21.9666 69.4821 21.5589C69.6312 21.1513 69.7058 20.7022 69.7058 20.2116C69.7058 19.7244 69.6312 19.277 69.4821 18.8693C69.3362 18.4583 69.1109 18.1286 68.8059 17.88C68.501 17.6314 68.1165 17.5071 67.6525 17.5071C67.1852 17.5071 66.7974 17.6314 66.4892 17.88C66.1842 18.1286 65.9572 18.4583 65.8081 18.8693C65.6622 19.277 65.5893 19.7244 65.5893 20.2116C65.5893 20.7022 65.6622 21.1513 65.8081 21.5589C65.9572 21.9666 66.1842 22.2931 66.4892 22.5384C66.7974 22.7836 67.1852 22.9062 67.6525 22.9062ZM74.2896 24L72.0424 16.3636H73.5787L75.0751 21.9716H75.1497L76.6511 16.3636H78.1873L79.6788 21.9467H79.7534L81.2399 16.3636H82.7761L80.5339 24H79.0176L77.4664 18.4865H77.3521L75.801 24H74.2896ZM90.1142 24.169C89.6303 24.169 89.1928 24.0795 88.8017 23.9006C88.4106 23.7183 88.1007 23.4548 87.872 23.1101C87.6466 22.7654 87.5339 22.3428 87.5339 21.8423C87.5339 21.4115 87.6168 21.0568 87.7825 20.7784C87.9482 20.5 88.1719 20.2796 88.4537 20.1172C88.7354 19.9548 89.0502 19.8321 89.3983 19.7493C89.7463 19.6664 90.1009 19.6035 90.4622 19.5604C90.9196 19.5073 91.2908 19.4643 91.5758 19.4311C91.8609 19.3946 92.068 19.3366 92.1973 19.2571C92.3265 19.1776 92.3912 19.0483 92.3912 18.8693V18.8345C92.3912 18.4003 92.2685 18.0639 92.0233 17.8253C91.7813 17.5866 91.42 17.4673 90.9395 17.4673C90.439 17.4673 90.0446 17.5784 89.7562 17.8004C89.4712 18.0192 89.274 18.2628 89.1646 18.5312L87.7676 18.2131C87.9333 17.7491 88.1752 17.3745 88.4934 17.0895C88.8149 16.8011 89.1845 16.5923 89.6021 16.4631C90.0197 16.3305 90.4589 16.2642 90.9196 16.2642C91.2245 16.2642 91.5476 16.3007 91.889 16.3736C92.2337 16.4432 92.5552 16.5724 92.8535 16.7614C93.1551 16.9503 93.402 17.2204 93.5943 17.5717C93.7865 17.9197 93.8826 18.3722 93.8826 18.929V24H92.4309V22.956H92.3713C92.2752 23.1482 92.131 23.3371 91.9387 23.5227C91.7465 23.7083 91.4996 23.8625 91.198 23.9851C90.8964 24.1077 90.5351 24.169 90.1142 24.169ZM90.4373 22.9759C90.8483 22.9759 91.1996 22.8946 91.4913 22.7322C91.7863 22.5698 92.01 22.3577 92.1625 22.0959C92.3182 21.8307 92.3961 21.5473 92.3961 21.2457V20.2614C92.3431 20.3144 92.2404 20.3641 92.0879 20.4105C91.9387 20.4536 91.7681 20.4917 91.5758 20.5249C91.3836 20.5547 91.1963 20.5829 91.014 20.6094C90.8317 20.6326 90.6793 20.6525 90.5566 20.669C90.2683 20.7055 90.0048 20.7668 89.7662 20.853C89.5308 20.9392 89.3419 21.0634 89.1994 21.2259C89.0602 21.3849 88.9906 21.5971 88.9906 21.8622C88.9906 22.2301 89.1265 22.5085 89.3983 22.6974C89.67 22.883 90.0164 22.9759 90.4373 22.9759ZM97.3491 13.8182V24H95.8626V13.8182H97.3491ZM100.835 13.8182V24H99.3489V13.8182H100.835ZM106.54 26.8636V16.3636H107.992V17.6016H108.116C108.202 17.4425 108.327 17.2585 108.489 17.0497C108.652 16.8409 108.877 16.6586 109.165 16.5028C109.454 16.3438 109.835 16.2642 110.309 16.2642C110.925 16.2642 111.475 16.42 111.959 16.7315C112.443 17.0431 112.823 17.4922 113.098 18.0788C113.376 18.6655 113.515 19.3714 113.515 20.1967C113.515 21.022 113.378 21.7296 113.103 22.3196C112.828 22.9062 112.45 23.3587 111.969 23.6768C111.489 23.9917 110.94 24.1491 110.324 24.1491C109.86 24.1491 109.48 24.0713 109.185 23.9155C108.894 23.7597 108.665 23.5774 108.499 23.3686C108.333 23.1598 108.206 22.9742 108.116 22.8118H108.027V26.8636H106.54ZM107.997 20.1818C107.997 20.7187 108.075 21.1894 108.231 21.5938C108.386 21.9981 108.612 22.3146 108.907 22.5433C109.202 22.7687 109.563 22.8814 109.991 22.8814C110.435 22.8814 110.806 22.7637 111.104 22.5284C111.403 22.2898 111.628 21.9666 111.78 21.5589C111.936 21.1513 112.014 20.6922 112.014 20.1818C112.014 19.678 111.938 19.2256 111.785 18.8246C111.636 18.4235 111.411 18.107 111.109 17.875C110.811 17.643 110.438 17.527 109.991 17.527C109.56 17.527 109.195 17.638 108.897 17.8601C108.602 18.0821 108.378 18.392 108.226 18.7898C108.073 19.1875 107.997 19.6515 107.997 20.1818ZM116.667 19.4659V24H115.181V13.8182H116.648V17.6065H116.742C116.921 17.1955 117.194 16.8691 117.562 16.6271C117.93 16.3852 118.411 16.2642 119.004 16.2642C119.528 16.2642 119.985 16.3719 120.376 16.5874C120.771 16.8028 121.076 17.1243 121.291 17.5518C121.51 17.9761 121.619 18.5064 121.619 19.1428V24H120.133V19.3217C120.133 18.7616 119.988 18.3274 119.7 18.0192C119.412 17.7076 119.011 17.5518 118.497 17.5518C118.146 17.5518 117.831 17.6264 117.552 17.7756C117.277 17.9247 117.06 18.1435 116.901 18.4318C116.745 18.7169 116.667 19.0616 116.667 19.4659ZM126.819 24.1541C126.104 24.1541 125.479 23.9901 124.945 23.6619C124.412 23.3338 123.997 22.8748 123.702 22.2848C123.407 21.6948 123.26 21.0054 123.26 20.2166C123.26 19.4245 123.407 18.7318 123.702 18.1385C123.997 17.5452 124.412 17.0845 124.945 16.7564C125.479 16.4283 126.104 16.2642 126.819 16.2642C127.535 16.2642 128.16 16.4283 128.694 16.7564C129.227 17.0845 129.642 17.5452 129.937 18.1385C130.232 18.7318 130.379 19.4245 130.379 20.2166C130.379 21.0054 130.232 21.6948 129.937 22.2848C129.642 22.8748 129.227 23.3338 128.694 23.6619C128.16 23.9901 127.535 24.1541 126.819 24.1541ZM126.824 22.9062C127.288 22.9062 127.673 22.7836 127.978 22.5384C128.283 22.2931 128.508 21.9666 128.654 21.5589C128.803 21.1513 128.878 20.7022 128.878 20.2116C128.878 19.7244 128.803 19.277 128.654 18.8693C128.508 18.4583 128.283 18.1286 127.978 17.88C127.673 17.6314 127.288 17.5071 126.824 17.5071C126.357 17.5071 125.969 17.6314 125.661 17.88C125.356 18.1286 125.129 18.4583 124.98 18.8693C124.834 19.277 124.761 19.7244 124.761 20.2116C124.761 20.7022 124.834 21.1513 124.98 21.5589C125.129 21.9666 125.356 22.2931 125.661 22.5384C125.969 22.7836 126.357 22.9062 126.824 22.9062ZM135.603 16.3636V17.5568H131.432V16.3636H135.603ZM132.55 14.5341H134.037V21.7578C134.037 22.0462 134.08 22.2633 134.166 22.4091C134.252 22.5516 134.363 22.6494 134.499 22.7024C134.638 22.7521 134.789 22.777 134.952 22.777C135.071 22.777 135.175 22.7687 135.265 22.7521C135.354 22.7356 135.424 22.7223 135.474 22.7124L135.742 23.9403C135.656 23.9735 135.533 24.0066 135.374 24.0398C135.215 24.0762 135.016 24.0961 134.778 24.0994C134.387 24.1061 134.022 24.0365 133.684 23.8906C133.346 23.7448 133.072 23.5194 132.864 23.2145C132.655 22.9096 132.55 22.5268 132.55 22.0661V14.5341ZM140.382 24.1541C139.666 24.1541 139.041 23.9901 138.508 23.6619C137.974 23.3338 137.56 22.8748 137.265 22.2848C136.97 21.6948 136.822 21.0054 136.822 20.2166C136.822 19.4245 136.97 18.7318 137.265 18.1385C137.56 17.5452 137.974 17.0845 138.508 16.7564C139.041 16.4283 139.666 16.2642 140.382 16.2642C141.098 16.2642 141.723 16.4283 142.256 16.7564C142.79 17.0845 143.204 17.5452 143.499 18.1385C143.794 18.7318 143.942 19.4245 143.942 20.2166C143.942 21.0054 143.794 21.6948 143.499 22.2848C143.204 22.8748 142.79 23.3338 142.256 23.6619C141.723 23.9901 141.098 24.1541 140.382 24.1541ZM140.387 22.9062C140.851 22.9062 141.235 22.7836 141.54 22.5384C141.845 22.2931 142.071 21.9666 142.216 21.5589C142.366 21.1513 142.44 20.7022 142.44 20.2116C142.44 19.7244 142.366 19.277 142.216 18.8693C142.071 18.4583 141.845 18.1286 141.54 17.88C141.235 17.6314 140.851 17.5071 140.387 17.5071C139.92 17.5071 139.532 17.6314 139.224 17.88C138.919 18.1286 138.692 18.4583 138.542 18.8693C138.397 19.277 138.324 19.7244 138.324 20.2116C138.324 20.7022 138.397 21.1513 138.542 21.5589C138.692 21.9666 138.919 22.2931 139.224 22.5384C139.532 22.7836 139.92 22.9062 140.387 22.9062ZM151.323 18.228L149.976 18.4666C149.92 18.2943 149.83 18.1302 149.707 17.9744C149.588 17.8187 149.426 17.6911 149.22 17.5916C149.015 17.4922 148.758 17.4425 148.45 17.4425C148.029 17.4425 147.677 17.5369 147.396 17.7259C147.114 17.9115 146.973 18.1518 146.973 18.4467C146.973 18.7019 147.067 18.9074 147.256 19.0632C147.445 19.219 147.75 19.3466 148.171 19.446L149.384 19.7244C150.087 19.8868 150.611 20.1371 150.955 20.4751C151.3 20.8132 151.472 21.2524 151.472 21.7926C151.472 22.25 151.34 22.6577 151.075 23.0156C150.813 23.3703 150.446 23.6487 149.976 23.8509C149.509 24.053 148.967 24.1541 148.35 24.1541C147.495 24.1541 146.797 23.9718 146.257 23.6072C145.717 23.2393 145.385 22.7173 145.263 22.0412L146.7 21.8224C146.789 22.197 146.973 22.4804 147.251 22.6726C147.53 22.8615 147.893 22.956 148.34 22.956C148.827 22.956 149.217 22.8549 149.509 22.6527C149.8 22.4472 149.946 22.197 149.946 21.902C149.946 21.6634 149.857 21.4628 149.678 21.3004C149.502 21.138 149.232 21.0154 148.867 20.9325L147.575 20.6491C146.862 20.4867 146.335 20.2282 145.994 19.8736C145.656 19.5189 145.487 19.0698 145.487 18.5263C145.487 18.0755 145.612 17.6811 145.864 17.343C146.116 17.005 146.464 16.7415 146.908 16.5526C147.353 16.3603 147.861 16.2642 148.435 16.2642C149.26 16.2642 149.91 16.4432 150.384 16.8011C150.857 17.1558 151.171 17.6314 151.323 18.228Z" fill="black"/>
<rect x="2.5" y="1.5" width="166" height="35" rx="7.5" stroke="black"/>
</g>
<defs>
<filter id="filter0_d_62_31464" x="0" y="0" width="171" height="40" filterUnits="userSpaceOnUse" color-interpolation-filters="sRGB">
<feFlood flood-opacity="0" result="BackgroundImageFix"/>
<feColorMatrix in="SourceAlpha" type="matrix" values="0 0 0 0 0 0 0 0 0 0 0 0 0 0 0 0 0 0 127 0" result="hardAlpha"/>
<feOffset dy="1"/>
<feGaussianBlur stdDeviation="1"/>
<feColorMatrix type="matrix" values="0 0 0 0 0.121569 0 0 0 0 0.160784 0 0 0 0 0.215686 0 0 0 0.08 0"/>
<feBlend mode="normal" in2="BackgroundImageFix" result="effect1_dropShadow_62_31464"/>
<feBlend mode="normal" in="SourceGraphic" in2="effect1_dropShadow_62_31464" result="shape"/>
</filter>
</defs>
</svg>
