<svg width="25" height="24" viewBox="0 0 25 24" fill="none" xmlns="http://www.w3.org/2000/svg">
<g clip-path="url(#clip0_2478_24550)">
<path fill-rule="evenodd" clip-rule="evenodd" d="M12.5 0C19.1276 0 24.5 5.3724 24.5 12C24.5 18.6276 19.1276 24 12.5 24C5.8724 24 0.5 18.6276 0.5 12C0.5 5.3724 5.8724 0 12.5 0Z" fill="#F0B90B"/>
<path d="M7.09559 12.0002L7.10399 15.173L9.80039 16.7594V18.617L5.52659 16.1102V11.072L7.09559 11.9996V12.0002ZM7.09559 8.82744V10.6766L5.52539 9.74784V7.89804L7.09559 6.96924L8.67359 7.89804L7.09559 8.82744ZM10.9266 7.89864L12.4968 6.96984L14.0748 7.89864L12.4968 8.82744L10.9266 7.89864Z" fill="white"/>
<path d="M8.23047 14.5154V12.6578L9.80067 13.5866V15.4358L8.23047 14.5154ZM10.9269 17.4248L12.4971 18.3536L14.0751 17.4248V19.274L12.4971 20.2028L10.9269 19.274V17.4248ZM16.3269 7.89804L17.8971 6.96924L19.4751 7.89804V9.74724L17.8971 10.676V8.82744L16.3269 7.89864V7.89804ZM17.8971 15.173L17.9055 12.0002L19.4757 11.0714V16.1096L15.2019 18.6164V16.7588L17.8971 15.173Z" fill="white"/>
<path d="M16.7694 14.5153L15.1992 15.4357V13.5865L16.7694 12.6577V14.5153Z" fill="white"/>
<path d="M16.7709 9.48476L16.7793 11.3424L14.0757 12.9288V16.1094L12.5055 17.0298L10.9353 16.1094V12.9288L8.23167 11.3424V9.48476L9.80847 8.55596L12.4959 10.1502L15.1995 8.55596L16.7775 9.48476H16.7709ZM8.23047 6.31256L12.4971 3.79736L16.7709 6.31256L15.2007 7.24136L12.4971 5.64716L9.80067 7.24136L8.23047 6.31256Z" fill="white"/>
</g>
<defs>
<clipPath id="clip0_2478_24550">
<rect width="24" height="24" fill="white" transform="translate(0.5)"/>
</clipPath>
</defs>
</svg>
