<svg width="16" height="16" viewBox="0 0 16 16" fill="none" xmlns="http://www.w3.org/2000/svg">
<g clip-path="url(#clip0_1_1898)">
<path d="M1 8C1 4.136 4.136 1 8 1C11.864 1 15 4.136 15 8C15 11.864 11.864 15 8 15C4.136 15 1 11.864 1 8Z" stroke="#9597A1" stroke-width="2"/>
<path d="M9 8C9 7.44772 8.55228 7 8 7C7.44772 7 7 7.44772 7 8V11C7 11.5523 7.44772 12 8 12C8.55228 12 9 11.5523 9 11V8Z" fill="#9597A1"/>
<path d="M9 5C9 4.44772 8.55228 4 8 4C7.44772 4 7 4.44772 7 5C7 5.55228 7.44772 6 8 6C8.55228 6 9 5.55228 9 5Z" fill="#9597A1"/>
</g>
<defs>
<clipPath id="clip0_1_1898">
<rect width="16" height="16" fill="white"/>
</clipPath>
</defs>
</svg>
