<svg width="20" height="18" viewBox="0 0 20 18" fill="none" xmlns="http://www.w3.org/2000/svg">
<g clip-path="url(#clip0_1_1447)">
<path fill-rule="evenodd" clip-rule="evenodd" d="M5.18225 17.7663H1.88304C1.1898 17.7663 0.84733 17.7663 0.638495 17.6327C0.413002 17.4865 0.275163 17.2443 0.258452 16.977C0.245945 16.7306 0.417153 16.4299 0.759623 15.8285L8.9058 1.46973C9.25242 0.859986 9.42784 0.555142 9.64918 0.442369C9.88723 0.321294 10.1712 0.321294 10.4093 0.442369C10.6306 0.555142 10.806 0.859986 11.1526 1.46973L12.8273 4.3931L12.8359 4.40802C13.2102 5.06217 13.4001 5.39386 13.483 5.74201C13.5748 6.12205 13.5748 6.52296 13.483 6.903C13.3995 7.25383 13.2115 7.58794 12.8315 8.25196L8.55251 15.816L8.54142 15.8354C8.16453 16.4949 7.97356 16.8291 7.70887 17.0814C7.42073 17.357 7.07411 17.5575 6.69407 17.6702C6.34745 17.7663 5.95905 17.7663 5.18225 17.7663Z" fill="#F00500"/>
<path fill-rule="evenodd" clip-rule="evenodd" d="M13.5134 17.7662H18.2409C18.9384 17.7662 19.2891 17.7662 19.498 17.6285C19.7235 17.4823 19.8655 17.2359 19.878 16.9686C19.8901 16.7303 19.7226 16.4412 19.3943 15.8749C19.3831 15.8555 19.3717 15.8359 19.3601 15.816L16.9922 11.765L16.9653 11.7195C16.6325 11.1567 16.4645 10.8726 16.2489 10.7627C16.0108 10.6416 15.731 10.6416 15.493 10.7627C15.2758 10.8754 15.1004 11.172 14.7537 11.7692L12.3942 15.8201L12.3861 15.8341C12.0407 16.4303 11.8681 16.7283 11.8805 16.9728C11.8972 17.2401 12.035 17.4865 12.2606 17.6326C12.4652 17.7662 12.816 17.7662 13.5134 17.7662Z" fill="#F00500"/>
</g>
<defs>
<clipPath id="clip0_1_1447">
<rect width="20" height="18" fill="white"/>
</clipPath>
</defs>
</svg>
