<svg width="10" height="10" viewBox="0 0 10 10" fill="none" xmlns="http://www.w3.org/2000/svg">
<path fill-rule="evenodd" clip-rule="evenodd" d="M0.37172 0.00195312L0.242472 0.116687L0.935246 0.930813L3.18122 3.58571L3.36424 3.8086C3.48023 3.96273 3.43657 4.10132 3.23789 4.20994C3.12744 4.27029 2.90028 4.33151 2.78655 4.33151C2.65794 4.33151 2.51299 4.27193 2.40749 4.1757C2.40509 4.17351 2.40244 4.17093 2.39956 4.16797L2.36695 4.13066L2.3204 4.07114L2.18183 3.88024L1.93538 3.52469L0.350665 1.17935L0.34214 1.17123C0.34063 1.17035 0.339976 1.17078 0.340853 1.17369L0.342877 1.17889L0.362257 1.21647L1.53734 3.24639L1.88874 3.86226L2.01059 4.08525L2.04955 4.16108L2.08092 4.22911L2.08842 4.25013L2.09086 4.26316C2.09086 4.36313 2.06251 4.41569 1.93423 4.55322L1.89551 4.59662C1.70861 4.81588 1.62054 5.07363 1.55586 5.57362L1.54442 5.6541C1.45793 6.21047 1.23362 6.62664 0.658295 7.31659L0.551166 7.44542L0.391738 7.64074L0.309566 7.74688L0.267558 7.80521L0.232633 7.85778L0.202105 7.90822L0.158683 7.98777C0.0465728 8.20251 0.0157415 8.32281 0.00324692 8.59397C-0.00997259 8.8807 0.0157415 9.06591 0.106871 9.34002C0.173324 9.54001 0.242205 9.6834 0.386487 9.90906L0.561824 10.1765L0.629287 10.2864L0.684469 10.384C0.741448 10.4902 0.77211 10.5689 0.77211 10.6117L0.773394 10.6337C0.776577 10.6523 0.787303 10.6607 0.82218 10.6592L0.865724 10.6544C0.874528 10.6531 0.884157 10.6514 0.894688 10.6495L0.969305 10.6347L1.19543 10.5843C1.81854 10.4327 2.32284 10.1854 2.61444 9.88659C2.80693 9.68929 2.85214 9.58034 2.85359 9.30997C2.85369 9.29032 2.85371 9.27239 2.85359 9.25591L2.85075 9.17215C2.84544 9.10124 2.83151 9.06218 2.79836 8.99436C2.71747 8.82879 2.57013 8.6911 2.2454 8.47768L2.16846 8.42585C1.79775 8.16956 1.63511 7.95354 1.58805 7.66323C1.55171 7.43907 1.58461 7.27316 1.75456 6.91138L1.87947 6.65452C2.08216 6.2333 2.13689 6.02007 2.17483 5.56054L2.18112 5.49013C2.20719 5.22159 2.24508 5.10693 2.33329 5.01352C2.43291 4.90798 2.52263 4.87222 2.76919 4.83983L2.86672 4.82562C3.21358 4.76975 3.44472 4.67147 3.63763 4.50057C3.82014 4.33885 3.89652 4.183 3.90825 3.94842L3.91716 3.77059L3.81516 3.65623L3.74189 3.57589L0.37172 0.00195312ZM0.581356 8.63617C0.55414 8.61783 0.541777 8.59684 0.541777 8.56998C0.541777 8.46001 0.74685 8.42023 0.878832 8.50466C1.01853 8.59396 1.06292 8.7768 0.979386 8.91904C0.899429 9.05525 0.74668 9.0999 0.638791 9.01868C0.571841 8.96828 0.56715 8.89411 0.625529 8.80976L0.642395 8.78353C0.681118 8.71749 0.669675 8.6817 0.604591 8.64948L0.581356 8.63617Z" fill="white"/>
<path d="M3.49336 1.16205C3.32854 1.13744 3.32159 1.13457 3.39916 1.12309C3.54777 1.10112 3.89873 1.13109 4.14056 1.18636C4.70516 1.3154 5.21889 1.64597 5.76728 2.23305L5.91295 2.38903L6.12135 2.3568C6.99938 2.22112 7.8926 2.32896 8.63967 2.6608C8.84517 2.75211 9.16922 2.93384 9.20969 2.98054C9.22261 2.99543 9.24628 3.09121 9.26231 3.19343C9.31783 3.54712 9.29003 3.81824 9.17753 4.02071C9.1163 4.13089 9.11289 4.16582 9.15404 4.26013C9.18692 4.33537 9.27851 4.39105 9.36922 4.39093C9.55489 4.39073 9.75471 4.10214 9.84729 3.7006L9.88405 3.54114L9.95693 3.62048C10.3566 4.05585 10.6704 4.64958 10.7244 5.0722L10.7384 5.18238L10.6713 5.0822C10.5556 4.90983 10.4395 4.79248 10.2907 4.69784C10.0226 4.52727 9.73911 4.46921 8.98824 4.43115C8.31012 4.39679 7.92633 4.34111 7.54578 4.22179C6.89828 4.01878 6.57184 3.74845 5.80272 2.77815C5.4611 2.3472 5.24993 2.10873 5.03991 1.91671C4.56265 1.4804 4.09369 1.25156 3.49336 1.16205Z" fill="white"/>
<path d="M9.3622 2.12386C9.37925 1.83508 9.41998 1.64462 9.5019 1.47064C9.53431 1.4018 9.56467 1.34546 9.56936 1.34546C9.57405 1.34546 9.55993 1.39626 9.53802 1.45838C9.47849 1.62719 9.46872 1.85812 9.50974 2.12678C9.56181 2.46764 9.59141 2.51684 9.96611 2.88505C10.1418 3.05776 10.3463 3.27561 10.4204 3.36913L10.5551 3.53917L10.4204 3.41764C10.2556 3.26905 9.87661 2.97919 9.7929 2.93778C9.73678 2.90998 9.72846 2.91047 9.69384 2.9436C9.66194 2.97415 9.6552 3.01999 9.65077 3.2369C9.64386 3.57493 9.59597 3.79192 9.48032 4.00887C9.41776 4.12618 9.40791 4.10117 9.4645 3.96872C9.50676 3.86983 9.51106 3.82636 9.51072 3.49911C9.51008 2.84159 9.42893 2.68352 8.95282 2.41277C8.83222 2.34418 8.6335 2.24523 8.51124 2.19291C8.38898 2.14055 8.29184 2.095 8.29538 2.0916C8.30886 2.07868 8.77316 2.20899 8.96002 2.27812C9.23798 2.38091 9.28386 2.39424 9.31763 2.38186C9.34028 2.37353 9.35119 2.31014 9.3622 2.12386Z" fill="white"/>
<path d="M3.81325 3.25087C3.47867 2.80799 3.27168 2.12894 3.3165 1.62132L3.33036 1.46423L3.40652 1.4776C3.54955 1.50265 3.79611 1.59093 3.91159 1.65834C4.22843 1.84339 4.36562 2.08699 4.50519 2.71258C4.54604 2.89578 4.59969 3.10313 4.62438 3.17333C4.66412 3.28634 4.81423 3.55027 4.93627 3.72167C5.0242 3.84513 4.96582 3.90364 4.77145 3.88675C4.47465 3.861 4.07261 3.59419 3.81325 3.25087Z" fill="white"/>
<path d="M8.95651 6.54574C7.39298 5.94041 6.84229 5.415 6.84229 4.52846C6.84229 4.39803 6.84698 4.29126 6.85265 4.29126C6.85836 4.29126 6.91883 4.33431 6.98706 4.38696C7.30412 4.63146 7.65917 4.7359 8.64206 4.87379C9.22043 4.95494 9.54593 5.02046 9.84614 5.1162C10.8005 5.42053 11.3909 6.03808 11.5317 6.87926C11.5726 7.12368 11.5486 7.58206 11.4823 7.82361C11.4299 8.0144 11.2701 8.35833 11.2277 8.37154C11.216 8.37519 11.2044 8.33189 11.2014 8.27296C11.1854 7.95712 11.0194 7.64959 10.7406 7.41923C10.4236 7.15735 9.99774 6.94885 8.95651 6.54574Z" fill="white"/>
<path d="M7.85874 6.79839C7.83913 6.68628 7.80514 6.54314 7.78322 6.48028L7.74331 6.36597L7.81742 6.44596C7.91998 6.55663 8.001 6.69826 8.0697 6.88687C8.12211 7.03083 8.12799 7.07364 8.12761 7.30757C8.12723 7.53727 8.12066 7.5854 8.07226 7.71497C7.99593 7.91929 7.90121 8.0642 7.74228 8.21972C7.45666 8.4992 7.08945 8.65395 6.55956 8.71816C6.46745 8.72927 6.19901 8.74809 5.96298 8.75986C5.36819 8.78963 4.97672 8.85105 4.62495 8.96984C4.57442 8.98694 4.52926 8.99731 4.52465 8.99288C4.51041 8.97927 4.74994 8.84199 4.94772 8.75039C5.22665 8.62119 5.5043 8.55066 6.12643 8.45106C6.43376 8.40186 6.75112 8.34216 6.83171 8.31838C7.59273 8.09401 7.98394 7.51504 7.85874 6.79839Z" fill="white"/>
<path d="M8.57573 8.02023C8.36802 7.59084 8.3203 7.17622 8.43411 6.7896C8.44631 6.74831 8.46588 6.71448 8.47765 6.71448C8.48942 6.71448 8.53846 6.73994 8.58656 6.7711C8.6823 6.83306 8.87428 6.93741 9.38579 7.20557C10.0241 7.54016 10.388 7.79926 10.6355 8.0953C10.8522 8.35457 10.9863 8.64979 11.0509 9.00984C11.0874 9.21379 11.066 9.70456 11.0116 9.9099C10.84 10.5575 10.4411 11.0661 9.87223 11.3629C9.7889 11.4064 9.71406 11.4421 9.70596 11.4422C9.69786 11.4424 9.72826 11.3681 9.77346 11.2772C9.96485 10.8926 9.98664 10.5184 9.84195 10.102C9.75334 9.84696 9.57274 9.53583 9.20801 9.00992C8.784 8.39852 8.68004 8.23582 8.57573 8.02023Z" fill="white"/>
<path d="M2.70314 10.3371C3.28335 9.86603 4.00531 9.5314 4.66292 9.42869C4.94632 9.3844 5.41843 9.40195 5.68086 9.46657C6.10154 9.57007 6.47787 9.80194 6.67356 10.0781C6.86482 10.3481 6.94686 10.5834 7.03228 11.1068C7.06601 11.3133 7.10264 11.5207 7.11373 11.5676C7.17791 11.8389 7.30277 12.0558 7.45748 12.1647C7.70319 12.3376 8.12634 12.3484 8.54258 12.1922C8.61325 12.1657 8.67457 12.1474 8.67887 12.1516C8.69397 12.166 8.48438 12.3009 8.33649 12.3719C8.13751 12.4675 7.97931 12.5044 7.76907 12.5044C7.38784 12.5044 7.07134 12.3179 6.80725 11.9377C6.75526 11.8629 6.63846 11.6387 6.54768 11.4397C6.26879 10.8281 6.13113 10.6418 5.80734 10.4379C5.52559 10.2605 5.16223 10.2287 4.88884 10.3576C4.52978 10.5269 4.42957 10.9681 4.68675 11.2478C4.78897 11.3589 4.97959 11.4547 5.13545 11.4734C5.42705 11.5082 5.67766 11.295 5.67766 11.0119C5.67766 10.8281 5.60419 10.7232 5.4192 10.6429C5.16658 10.5333 4.89507 10.6614 4.89635 10.8896C4.8969 10.9869 4.94099 11.048 5.0424 11.0921C5.10747 11.1205 5.10901 11.1227 5.05592 11.1121C4.82415 11.0659 4.76987 10.7972 4.95622 10.6188C5.17997 10.4047 5.64265 10.4992 5.80154 10.7915C5.86828 10.9143 5.87604 11.1588 5.81783 11.3064C5.6876 11.6369 5.30781 11.8106 4.92257 11.7161C4.66027 11.6517 4.55349 11.582 4.23725 11.2688C3.68774 10.7245 3.4744 10.6191 2.68221 10.5001L2.5304 10.4773L2.70314 10.3371Z" fill="white"/>
<path fill-rule="evenodd" clip-rule="evenodd" d="M4.17075 4.93468C3.98201 4.99041 3.79856 5.18275 3.74176 5.38441C3.70709 5.50746 3.72675 5.72326 3.77864 5.78989C3.86248 5.89756 3.94355 5.92594 4.16307 5.92442C4.59288 5.92155 4.96652 5.74429 5.00993 5.52275C5.04554 5.34111 4.88145 5.08939 4.65544 4.97888C4.53881 4.92189 4.29075 4.89926 4.17075 4.93468ZM4.67302 5.3118C4.73929 5.22127 4.71029 5.12339 4.59755 5.05722C4.38288 4.93117 4.05827 5.03544 4.05827 5.23045C4.05827 5.32751 4.22757 5.43342 4.38275 5.43342C4.48603 5.43342 4.62735 5.37421 4.67302 5.3118Z" fill="white"/>
</svg>
