<svg width="26" height="25" viewBox="0 0 26 25" fill="none" xmlns="http://www.w3.org/2000/svg">
<path fill-rule="evenodd" clip-rule="evenodd" d="M4.28081 3.22839L4.08954 3.39818L5.11475 4.60298L8.43849 8.53187L8.70934 8.86172C8.88099 9.08981 8.81637 9.29491 8.52236 9.45565C8.35891 9.54497 8.02274 9.63556 7.85443 9.63556C7.6641 9.63556 7.4496 9.5474 7.29348 9.40498C7.28992 9.40173 7.28601 9.39793 7.28174 9.39355L7.23348 9.33833L7.16459 9.25024L6.95953 8.96774L6.59482 8.44157L4.24965 4.97078L4.23703 4.95877C4.2348 4.95747 4.23383 4.95811 4.23513 4.96241L4.23813 4.97011L4.2668 5.02571L6.00577 8.02972L6.5258 8.94113L6.70611 9.27113L6.76378 9.38334L6.81019 9.48403L6.8213 9.51512L6.82491 9.53441C6.82491 9.68235 6.78294 9.76014 6.59312 9.96366L6.53582 10.0279C6.25923 10.3524 6.1289 10.7338 6.03317 11.4737L6.01624 11.5928C5.88826 12.4162 5.55631 13.032 4.7049 14.0531L4.54636 14.2437L4.31043 14.5328L4.18883 14.6899L4.12666 14.7762L4.07498 14.854L4.0298 14.9286L3.96554 15.0463C3.79963 15.3641 3.75401 15.5422 3.73552 15.9434C3.71595 16.3678 3.75401 16.6418 3.88887 17.0475C3.98721 17.3435 4.08914 17.5556 4.30266 17.8896L4.56214 18.2854L4.66197 18.448L4.74364 18.5925C4.82796 18.7497 4.87333 18.8661 4.87333 18.9295L4.87523 18.9619C4.87994 18.9894 4.89582 19.002 4.94743 18.9998L5.01187 18.9926C5.0249 18.9906 5.03915 18.9882 5.05473 18.9853L5.16515 18.9635L5.49979 18.8888C6.42191 18.6645 7.1682 18.2985 7.59974 17.8563C7.8846 17.5644 7.95149 17.4031 7.95364 17.003C7.9538 16.9739 7.95383 16.9474 7.95364 16.923L7.94945 16.7991C7.94159 16.6941 7.92097 16.6363 7.87192 16.536C7.7522 16.2909 7.53417 16.0872 7.05361 15.7713L6.93974 15.6946C6.39114 15.3154 6.15045 14.9957 6.08082 14.5661C6.02703 14.2343 6.07573 13.9888 6.32723 13.4534L6.51208 13.0733C6.81203 12.45 6.89303 12.1344 6.94917 11.4544L6.95848 11.3502C6.99706 10.9528 7.05313 10.7831 7.18367 10.6448C7.33109 10.4887 7.46387 10.4357 7.82875 10.3878L7.97308 10.3668C8.48638 10.2841 8.82844 10.1387 9.11392 9.88574C9.38402 9.64642 9.49704 9.41578 9.5144 9.06864L9.52759 8.80547L9.37663 8.63624L9.2682 8.51734L4.28081 3.22839ZM4.59113 16.0049C4.55085 15.9778 4.53256 15.9467 4.53256 15.907C4.53256 15.7442 4.83604 15.6854 5.03135 15.8103C5.23809 15.9425 5.30378 16.213 5.18016 16.4235C5.06183 16.6251 4.83578 16.6912 4.67612 16.571C4.57705 16.4964 4.57011 16.3866 4.6565 16.2618L4.68146 16.223C4.73876 16.1253 4.72183 16.0723 4.62551 16.0246L4.59113 16.0049Z" fill="#FF007A"/>
<path d="M8.90038 4.94606C8.65648 4.90965 8.64619 4.9054 8.76098 4.88841C8.98091 4.85589 9.50028 4.90024 9.85816 4.98204C10.6937 5.173 11.4539 5.6622 12.2655 6.531L12.4811 6.76183L12.7895 6.71413C14.0888 6.51334 15.4107 6.67293 16.5162 7.16401C16.8204 7.29914 17.2999 7.56807 17.3598 7.63719C17.3789 7.65921 17.4139 7.80096 17.4377 7.95223C17.5198 8.47565 17.4787 8.87687 17.3122 9.1765C17.2216 9.33955 17.2165 9.39125 17.2774 9.53081C17.3261 9.64215 17.4616 9.72456 17.5959 9.72438C17.8706 9.72407 18.1664 9.29701 18.3034 8.70278L18.3578 8.4668L18.4656 8.58421C19.057 9.2285 19.5215 10.1071 19.6013 10.7326L19.6221 10.8956L19.5227 10.7474C19.3516 10.4923 19.1797 10.3186 18.9596 10.1786C18.5628 9.92613 18.1433 9.84021 17.0321 9.7839C16.0286 9.73305 15.4606 9.65065 14.8974 9.47407C13.9392 9.17365 13.4561 8.77359 12.3179 7.33767C11.8124 6.69993 11.4999 6.34702 11.1891 6.06286C10.4828 5.41717 9.7888 5.07852 8.90038 4.94606Z" fill="#FF007A"/>
<path d="M17.5862 6.36995C17.6114 5.94259 17.6717 5.66073 17.7929 5.40327C17.8409 5.30139 17.8858 5.21802 17.8928 5.21802C17.8997 5.21802 17.8788 5.2932 17.8464 5.38513C17.7583 5.63495 17.7438 5.97669 17.8046 6.37426C17.8816 6.87869 17.9254 6.95151 18.4799 7.49641C18.74 7.75199 19.0425 8.07438 19.1522 8.21279L19.3516 8.46442L19.1522 8.28457C18.9083 8.06467 18.3475 7.63573 18.2236 7.57444C18.1405 7.5333 18.1282 7.53403 18.077 7.58306C18.0298 7.62826 18.0198 7.6961 18.0132 8.0171C18.003 8.51734 17.9322 8.83845 17.761 9.15951C17.6684 9.33311 17.6539 9.2961 17.7376 9.1001C17.8001 8.95374 17.8065 8.88942 17.806 8.40514C17.8051 7.43209 17.685 7.19817 16.9804 6.7975C16.8019 6.69598 16.5078 6.54957 16.3269 6.47214C16.146 6.39465 16.0022 6.32724 16.0075 6.3222C16.0274 6.30309 16.7145 6.49592 16.991 6.59823C17.4024 6.75035 17.4703 6.77007 17.5203 6.75175C17.5538 6.73943 17.5699 6.64562 17.5862 6.36995Z" fill="#FF007A"/>
<path d="M9.37412 8.03448C8.87899 7.37909 8.57267 6.37418 8.63899 5.62297L8.6595 5.3905L8.77221 5.41028C8.98387 5.44736 9.34875 5.578 9.51965 5.67776C9.98853 5.95161 10.1915 6.3121 10.3981 7.23789C10.4586 7.509 10.5379 7.81586 10.5745 7.91974C10.6333 8.08697 10.8554 8.47757 11.036 8.73121C11.1662 8.91391 11.0798 9.0005 10.7921 8.9755C10.3529 8.93739 9.75794 8.54255 9.37412 8.03448Z" fill="#FF007A"/>
<path d="M16.9857 12.9125C14.6719 12.0167 13.8569 11.2392 13.8569 9.9272C13.8569 9.73418 13.8639 9.57617 13.8723 9.57617C13.8807 9.57617 13.9702 9.63989 14.0712 9.7178C14.5404 10.0796 15.0658 10.2342 16.5204 10.4382C17.3763 10.5583 17.858 10.6553 18.3022 10.797C19.7145 11.2473 20.5883 12.1612 20.7966 13.4061C20.8572 13.7678 20.8217 14.4461 20.7235 14.8036C20.646 15.0859 20.4095 15.5949 20.3468 15.6144C20.3294 15.6198 20.3123 15.5558 20.3079 15.4686C20.2841 15.0011 20.0384 14.5461 19.6259 14.2052C19.1568 13.8176 18.5266 13.509 16.9857 12.9125Z" fill="#FF007A"/>
<path d="M15.3613 13.2847C15.3323 13.1188 15.282 12.907 15.2495 12.8139L15.1905 12.6448L15.3001 12.7632C15.4519 12.9269 15.5718 13.1365 15.6735 13.4156C15.751 13.6287 15.7597 13.692 15.7592 14.0382C15.7586 14.3781 15.7489 14.4494 15.6773 14.6411C15.5643 14.9435 15.4241 15.1579 15.1889 15.3881C14.7663 15.8017 14.2228 16.0307 13.4387 16.1257C13.3024 16.1422 12.9051 16.17 12.5558 16.1874C11.6756 16.2315 11.0963 16.3224 10.5757 16.4982C10.5009 16.5235 10.4341 16.5388 10.4273 16.5323C10.4062 16.5121 10.7607 16.309 11.0534 16.1734C11.4662 15.9822 11.877 15.8778 12.7977 15.7304C13.2525 15.6576 13.7222 15.5693 13.8414 15.5341C14.9676 15.202 15.5466 14.3453 15.3613 13.2847Z" fill="#FF007A"/>
<path d="M16.422 15.096C16.1146 14.4606 16.044 13.847 16.2124 13.2749C16.2304 13.2138 16.2594 13.1637 16.2768 13.1637C16.2942 13.1637 16.3668 13.2014 16.438 13.2475C16.5797 13.3392 16.8638 13.4936 17.6208 13.8905C18.5653 14.3856 19.1039 14.769 19.4701 15.2071C19.7909 15.5908 19.9893 16.0277 20.0848 16.5605C20.139 16.8623 20.1072 17.5886 20.0267 17.8925C19.7728 18.8508 19.1825 19.6035 18.3406 20.0427C18.2173 20.1071 18.1065 20.1599 18.0946 20.1601C18.0826 20.1604 18.1276 20.0505 18.1945 19.916C18.4777 19.3467 18.5099 18.793 18.2958 18.1767C18.1647 17.7994 17.8974 17.3389 17.3577 16.5606C16.7302 15.6559 16.5763 15.4151 16.422 15.096Z" fill="#FF007A"/>
<path d="M7.73099 18.5245C8.58962 17.8274 9.65802 17.3322 10.6312 17.1802C11.0506 17.1147 11.7492 17.1406 12.1376 17.2363C12.7602 17.3894 13.3171 17.7326 13.6067 18.1413C13.8897 18.5409 14.0111 18.889 14.1375 19.6636C14.1874 19.9692 14.2417 20.2761 14.2581 20.3455C14.353 20.747 14.5378 21.0679 14.7668 21.2291C15.1304 21.485 15.7566 21.5009 16.3726 21.2699C16.4771 21.2307 16.5679 21.2035 16.5743 21.2097C16.5966 21.231 16.2864 21.4307 16.0676 21.5358C15.7731 21.6772 15.539 21.7319 15.2279 21.7319C14.6637 21.7319 14.1953 21.4559 13.8045 20.8932C13.7276 20.7825 13.5547 20.4508 13.4204 20.1562C13.0077 19.2511 12.804 18.9755 12.3248 18.6737C11.9078 18.4112 11.3701 18.3642 10.9655 18.5549C10.4342 18.8054 10.2859 19.4583 10.6665 19.8722C10.8177 20.0366 11.0998 20.1785 11.3305 20.206C11.762 20.2577 12.1329 19.942 12.1329 19.5231C12.1329 19.2511 12.0241 19.0958 11.7504 18.9771C11.3765 18.8149 10.9747 19.0045 10.9766 19.3422C10.9775 19.4862 11.0427 19.5766 11.1928 19.6419C11.2891 19.6838 11.2913 19.6871 11.2128 19.6714C10.8698 19.6031 10.7895 19.2054 11.0652 18.9415C11.3964 18.6246 12.0811 18.7644 12.3162 19.1969C12.415 19.3787 12.4264 19.7405 12.3403 19.9589C12.1476 20.448 11.5856 20.7052 11.0154 20.5653C10.6273 20.4699 10.4693 20.3668 10.0013 19.9033C9.18806 19.0978 8.87234 18.9418 7.7 18.7657L7.47534 18.7321L7.73099 18.5245Z" fill="#FF007A"/>
<path fill-rule="evenodd" clip-rule="evenodd" d="M9.90302 10.5258C9.62371 10.6083 9.35223 10.8929 9.26817 11.1914C9.21686 11.3735 9.24595 11.6928 9.32276 11.7914C9.44682 11.9508 9.56679 11.9928 9.89166 11.9905C10.5277 11.9863 11.0807 11.7239 11.1449 11.3961C11.1976 11.1273 10.9548 10.7548 10.6203 10.5912C10.4477 10.5069 10.0806 10.4734 9.90302 10.5258ZM10.6465 11.0849C10.7446 10.9509 10.7017 10.806 10.5348 10.7081C10.2172 10.5216 9.7368 10.6759 9.7368 10.9645C9.7368 11.1081 9.98733 11.2648 10.217 11.2648C10.3698 11.2648 10.579 11.1772 10.6465 11.0849Z" fill="#FF007A"/>
</svg>
