<svg width="25" height="24" viewBox="0 0 25 24" fill="none" xmlns="http://www.w3.org/2000/svg">
<g clip-path="url(#clip0_995_7235)">
<path fill-rule="evenodd" clip-rule="evenodd" d="M12.5 0C19.1276 0 24.5 5.3724 24.5 12C24.5 18.6276 19.1276 24 12.5 24C5.8724 24 0.5 18.6276 0.5 12C0.5 5.3724 5.8724 0 12.5 0Z" fill="#F0B90B"/>
<path d="M7.09559 12L7.10399 15.1728L9.80039 16.7592V18.6168L5.52659 16.11V11.0718L7.09559 11.9994V12ZM7.09559 8.82719V10.6764L5.52539 9.74759V7.89779L7.09559 6.96899L8.67359 7.89779L7.09559 8.82719ZM10.9266 7.89839L12.4968 6.96959L14.0748 7.89839L12.4968 8.82719L10.9266 7.89839Z" fill="white"/>
<path d="M8.22949 14.5152V12.6576L9.79969 13.5864V15.4356L8.22949 14.5152ZM10.9259 17.4246L12.4961 18.3534L14.0741 17.4246V19.2738L12.4961 20.2026L10.9259 19.2738V17.4246ZM16.3259 7.89779L17.8961 6.96899L19.4741 7.89779V9.74699L17.8961 10.6758V8.82719L16.3259 7.89839V7.89779ZM17.8961 15.1728L17.9045 12L19.4747 11.0712V16.1094L15.2009 18.6162V16.7586L17.8961 15.1728Z" fill="white"/>
<path d="M16.7704 14.5152L15.2002 15.4356V13.5864L16.7704 12.6576V14.5152Z" fill="white"/>
<path d="M16.7699 9.48482L16.7783 11.3424L14.0747 12.9288V16.1094L12.5045 17.0298L10.9343 16.1094V12.9288L8.23069 11.3424V9.48482L9.80749 8.55602L12.4949 10.1502L15.1985 8.55602L16.7765 9.48482H16.7699ZM8.22949 6.31262L12.4961 3.79742L16.7699 6.31262L15.1997 7.24142L12.4961 5.64722L9.79969 7.24142L8.22949 6.31262Z" fill="white"/>
</g>
<defs>
<clipPath id="clip0_995_7235">
<rect width="24" height="24" fill="white" transform="translate(0.5)"/>
</clipPath>
</defs>
</svg>
