<svg width="24" height="24" viewBox="0 0 24 24" fill="none" xmlns="http://www.w3.org/2000/svg">
<path fill-rule="evenodd" clip-rule="evenodd" d="M7.43684 11.16C7.43684 8.84043 9.31725 6.96003 11.6369 6.96003C13.9564 6.96003 15.8369 8.84043 15.8369 11.16C15.8369 13.4796 13.9564 15.36 11.6369 15.36C9.31725 15.36 7.43684 13.4796 7.43684 11.16ZM11.6369 5.28003C8.38941 5.28003 5.75684 7.9126 5.75684 11.16C5.75684 14.4074 8.38941 17.04 11.6369 17.04C12.9606 17.04 14.1822 16.6026 15.165 15.8643C15.1885 15.8956 15.2144 15.9256 15.2429 15.954L17.7629 18.474C18.0909 18.802 18.6228 18.802 18.9508 18.474C19.2788 18.1459 19.2788 17.6141 18.9508 17.2861L16.4308 14.7661C16.4024 14.7376 16.3724 14.7116 16.3411 14.6881C17.0794 13.7054 17.5169 12.4838 17.5169 11.16C17.5169 7.9126 14.8842 5.28003 11.6369 5.28003Z" fill="#16161A" fill-opacity="0.6"/>
</svg>
