<svg width="18" height="19" viewBox="0 0 18 19" fill="none" xmlns="http://www.w3.org/2000/svg">
<path fill-rule="evenodd" clip-rule="evenodd" d="M9 17.4987C13.1421 17.4987 16.5 14.1408 16.5 9.99866C16.5 5.85652 13.1421 2.49866 9 2.49866C4.85786 2.49866 1.5 5.85652 1.5 9.99866C1.5 14.1408 4.85786 17.4987 9 17.4987ZM9 18.9987C13.9706 18.9987 18 14.9692 18 9.99866C18 5.0281 13.9706 0.998658 9 0.998658C4.02944 0.998657 -1.76132e-07 5.02809 -3.93402e-07 9.99866C-6.10673e-07 14.9692 4.02944 18.9987 9 18.9987Z" fill="white"/>
<path d="M7.07128 13.1473C6.74313 12.8354 6.74316 12.3214 7.07141 12.0096L9.18805 9.99868L7.07148 7.98788C6.74332 7.67598 6.74316 7.16191 7.07142 6.84999C7.38888 6.54832 7.89609 6.54836 8.21352 6.84994L10.9291 9.42987C11.0907 9.5835 11.1752 9.78954 11.1752 9.99866C11.1752 10.2079 11.0906 10.4141 10.929 10.5676L8.21345 13.1474C7.89602 13.4491 7.38873 13.4491 7.07128 13.1473Z" fill="white"/>
</svg>
