<svg width="362" height="61" viewBox="0 0 362 61" fill="none" xmlns="http://www.w3.org/2000/svg">
<g filter="url(#filter0_d_1_2938)">
<mask id="path-1-inside-1_1_2938" fill="white">
<path d="M4.14697 52.1569V0.401978H15.1077V43.1352H37.3327V52.1569H4.14697ZM55.5517 0.401978V52.1569H44.5913V0.401978H55.5517ZM64.5696 52.1569V0.401978H85.3265C89.1405 0.401978 92.3215 0.966653 94.8698 2.0953C97.4178 3.22394 99.3331 4.79094 100.616 6.7956C101.898 8.78353 102.539 11.075 102.539 13.6692C102.539 15.6909 102.134 17.4682 101.324 19.0014C100.515 20.5176 99.4008 21.7643 97.983 22.7414C96.5823 23.7017 94.9792 24.3842 93.1736 24.7884V25.294C95.1481 25.378 96.9958 25.9341 98.7172 26.9617C100.455 27.9893 101.864 29.43 102.945 31.2831C104.025 33.1194 104.565 35.3095 104.565 37.8535C104.565 40.5997 103.881 43.0509 102.514 45.2075C101.164 47.347 99.1645 49.04 96.515 50.2867C93.8654 51.5335 90.6 52.1569 86.7187 52.1569H64.5696ZM75.5303 43.211H84.4658C87.5202 43.211 89.7478 42.6296 91.1485 41.4672C92.5492 40.288 93.2495 38.721 93.2495 36.7669C93.2495 35.3347 92.9035 34.0712 92.2117 32.9764C91.5199 31.8812 90.5326 31.0219 89.2499 30.3985C87.9843 29.7751 86.4742 29.4634 84.7188 29.4634H75.5303V43.211ZM75.5303 22.0593H83.6557C85.1576 22.0593 86.4909 21.7981 87.6553 21.2758C88.8365 20.7367 89.7649 19.9785 90.4399 19.0014C91.1317 18.0244 91.4775 16.8534 91.4775 15.4888C91.4775 13.6187 90.811 12.1111 89.478 10.9654C88.1614 9.81966 86.2885 9.2468 83.8585 9.2468H75.5303V22.0593ZM111.697 52.1569V0.401978H146.629V9.42364H122.657V21.7562H144.832V30.7778H122.657V43.1352H146.73V52.1569H111.697ZM155.343 52.1569V0.401978H175.796C179.711 0.401978 183.054 1.10115 185.819 2.4995C188.603 3.88112 190.723 5.84379 192.174 8.38786C193.642 10.9149 194.377 13.8884 194.377 17.3085C194.377 20.7453 193.632 23.7017 192.149 26.1786C190.663 28.6379 188.51 30.5248 185.695 31.8392C182.893 33.1532 179.5 33.8101 175.518 33.8101H161.823V25.0158H173.746C175.838 25.0158 177.576 24.7297 178.96 24.1568C180.344 23.584 181.373 22.7247 182.048 21.579C182.74 20.4336 183.086 19.01 183.086 17.3085C183.086 15.5899 182.74 14.141 182.048 12.9619C181.373 11.7823 180.336 10.8896 178.935 10.2829C177.551 9.65954 175.804 9.34785 173.695 9.34785H166.304V52.1569H155.343ZM183.339 28.6045L196.223 52.1569H184.123L171.518 28.6045H183.339ZM200.147 9.42364V0.401978H242.724V9.42364H226.853V52.1569H216.018V9.42364H200.147ZM281.758 0.401978H292.717V34.0125C292.717 37.7863 291.816 41.0882 290.009 43.9184C288.219 46.7489 285.714 48.956 282.492 50.5394C279.266 52.1064 275.513 52.8899 271.226 52.8899C266.924 52.8899 263.16 52.1064 259.938 50.5394C256.713 48.956 254.207 46.7489 252.418 43.9184C250.629 41.0882 249.734 37.7863 249.734 34.0125V0.401978H260.697V33.0774C260.697 35.0483 261.125 36.8007 261.988 38.3335C262.864 39.8667 264.098 41.0715 265.684 41.9475C267.27 42.8235 269.116 43.2616 271.226 43.2616C273.354 43.2616 275.2 42.8235 276.772 41.9475C278.358 41.0715 279.58 39.8667 280.443 38.3335C281.319 36.8007 281.758 35.0483 281.758 33.0774V0.401978ZM301.735 0.401978H315.253L329.531 35.175H330.137L344.415 0.401978H357.93V52.1569H347.298V18.4709H346.87L333.452 51.9043H326.213L312.798 18.3443H312.366V52.1569H301.735V0.401978Z"/>
</mask>
<path d="M4.14697 52.1569V0.401978H15.1077V43.1352H37.3327V52.1569H4.14697ZM55.5517 0.401978V52.1569H44.5913V0.401978H55.5517ZM64.5696 52.1569V0.401978H85.3265C89.1405 0.401978 92.3215 0.966653 94.8698 2.0953C97.4178 3.22394 99.3331 4.79094 100.616 6.7956C101.898 8.78353 102.539 11.075 102.539 13.6692C102.539 15.6909 102.134 17.4682 101.324 19.0014C100.515 20.5176 99.4008 21.7643 97.983 22.7414C96.5823 23.7017 94.9792 24.3842 93.1736 24.7884V25.294C95.1481 25.378 96.9958 25.9341 98.7172 26.9617C100.455 27.9893 101.864 29.43 102.945 31.2831C104.025 33.1194 104.565 35.3095 104.565 37.8535C104.565 40.5997 103.881 43.0509 102.514 45.2075C101.164 47.347 99.1645 49.04 96.515 50.2867C93.8654 51.5335 90.6 52.1569 86.7187 52.1569H64.5696ZM75.5303 43.211H84.4658C87.5202 43.211 89.7478 42.6296 91.1485 41.4672C92.5492 40.288 93.2495 38.721 93.2495 36.7669C93.2495 35.3347 92.9035 34.0712 92.2117 32.9764C91.5199 31.8812 90.5326 31.0219 89.2499 30.3985C87.9843 29.7751 86.4742 29.4634 84.7188 29.4634H75.5303V43.211ZM75.5303 22.0593H83.6557C85.1576 22.0593 86.4909 21.7981 87.6553 21.2758C88.8365 20.7367 89.7649 19.9785 90.4399 19.0014C91.1317 18.0244 91.4775 16.8534 91.4775 15.4888C91.4775 13.6187 90.811 12.1111 89.478 10.9654C88.1614 9.81966 86.2885 9.2468 83.8585 9.2468H75.5303V22.0593ZM111.697 52.1569V0.401978H146.629V9.42364H122.657V21.7562H144.832V30.7778H122.657V43.1352H146.73V52.1569H111.697ZM155.343 52.1569V0.401978H175.796C179.711 0.401978 183.054 1.10115 185.819 2.4995C188.603 3.88112 190.723 5.84379 192.174 8.38786C193.642 10.9149 194.377 13.8884 194.377 17.3085C194.377 20.7453 193.632 23.7017 192.149 26.1786C190.663 28.6379 188.51 30.5248 185.695 31.8392C182.893 33.1532 179.5 33.8101 175.518 33.8101H161.823V25.0158H173.746C175.838 25.0158 177.576 24.7297 178.96 24.1568C180.344 23.584 181.373 22.7247 182.048 21.579C182.74 20.4336 183.086 19.01 183.086 17.3085C183.086 15.5899 182.74 14.141 182.048 12.9619C181.373 11.7823 180.336 10.8896 178.935 10.2829C177.551 9.65954 175.804 9.34785 173.695 9.34785H166.304V52.1569H155.343ZM183.339 28.6045L196.223 52.1569H184.123L171.518 28.6045H183.339ZM200.147 9.42364V0.401978H242.724V9.42364H226.853V52.1569H216.018V9.42364H200.147ZM281.758 0.401978H292.717V34.0125C292.717 37.7863 291.816 41.0882 290.009 43.9184C288.219 46.7489 285.714 48.956 282.492 50.5394C279.266 52.1064 275.513 52.8899 271.226 52.8899C266.924 52.8899 263.16 52.1064 259.938 50.5394C256.713 48.956 254.207 46.7489 252.418 43.9184C250.629 41.0882 249.734 37.7863 249.734 34.0125V0.401978H260.697V33.0774C260.697 35.0483 261.125 36.8007 261.988 38.3335C262.864 39.8667 264.098 41.0715 265.684 41.9475C267.27 42.8235 269.116 43.2616 271.226 43.2616C273.354 43.2616 275.2 42.8235 276.772 41.9475C278.358 41.0715 279.58 39.8667 280.443 38.3335C281.319 36.8007 281.758 35.0483 281.758 33.0774V0.401978ZM301.735 0.401978H315.253L329.531 35.175H330.137L344.415 0.401978H357.93V52.1569H347.298V18.4709H346.87L333.452 51.9043H326.213L312.798 18.3443H312.366V52.1569H301.735V0.401978Z" fill="black"/>
<path d="M4.14697 52.1569V0.401978H15.1077V43.1352H37.3327V52.1569H4.14697ZM55.5517 0.401978V52.1569H44.5913V0.401978H55.5517ZM64.5696 52.1569V0.401978H85.3265C89.1405 0.401978 92.3215 0.966653 94.8698 2.0953C97.4178 3.22394 99.3331 4.79094 100.616 6.7956C101.898 8.78353 102.539 11.075 102.539 13.6692C102.539 15.6909 102.134 17.4682 101.324 19.0014C100.515 20.5176 99.4008 21.7643 97.983 22.7414C96.5823 23.7017 94.9792 24.3842 93.1736 24.7884V25.294C95.1481 25.378 96.9958 25.9341 98.7172 26.9617C100.455 27.9893 101.864 29.43 102.945 31.2831C104.025 33.1194 104.565 35.3095 104.565 37.8535C104.565 40.5997 103.881 43.0509 102.514 45.2075C101.164 47.347 99.1645 49.04 96.515 50.2867C93.8654 51.5335 90.6 52.1569 86.7187 52.1569H64.5696ZM75.5303 43.211H84.4658C87.5202 43.211 89.7478 42.6296 91.1485 41.4672C92.5492 40.288 93.2495 38.721 93.2495 36.7669C93.2495 35.3347 92.9035 34.0712 92.2117 32.9764C91.5199 31.8812 90.5326 31.0219 89.2499 30.3985C87.9843 29.7751 86.4742 29.4634 84.7188 29.4634H75.5303V43.211ZM75.5303 22.0593H83.6557C85.1576 22.0593 86.4909 21.7981 87.6553 21.2758C88.8365 20.7367 89.7649 19.9785 90.4399 19.0014C91.1317 18.0244 91.4775 16.8534 91.4775 15.4888C91.4775 13.6187 90.811 12.1111 89.478 10.9654C88.1614 9.81966 86.2885 9.2468 83.8585 9.2468H75.5303V22.0593ZM111.697 52.1569V0.401978H146.629V9.42364H122.657V21.7562H144.832V30.7778H122.657V43.1352H146.73V52.1569H111.697ZM155.343 52.1569V0.401978H175.796C179.711 0.401978 183.054 1.10115 185.819 2.4995C188.603 3.88112 190.723 5.84379 192.174 8.38786C193.642 10.9149 194.377 13.8884 194.377 17.3085C194.377 20.7453 193.632 23.7017 192.149 26.1786C190.663 28.6379 188.51 30.5248 185.695 31.8392C182.893 33.1532 179.5 33.8101 175.518 33.8101H161.823V25.0158H173.746C175.838 25.0158 177.576 24.7297 178.96 24.1568C180.344 23.584 181.373 22.7247 182.048 21.579C182.74 20.4336 183.086 19.01 183.086 17.3085C183.086 15.5899 182.74 14.141 182.048 12.9619C181.373 11.7823 180.336 10.8896 178.935 10.2829C177.551 9.65954 175.804 9.34785 173.695 9.34785H166.304V52.1569H155.343ZM183.339 28.6045L196.223 52.1569H184.123L171.518 28.6045H183.339ZM200.147 9.42364V0.401978H242.724V9.42364H226.853V52.1569H216.018V9.42364H200.147ZM281.758 0.401978H292.717V34.0125C292.717 37.7863 291.816 41.0882 290.009 43.9184C288.219 46.7489 285.714 48.956 282.492 50.5394C279.266 52.1064 275.513 52.8899 271.226 52.8899C266.924 52.8899 263.16 52.1064 259.938 50.5394C256.713 48.956 254.207 46.7489 252.418 43.9184C250.629 41.0882 249.734 37.7863 249.734 34.0125V0.401978H260.697V33.0774C260.697 35.0483 261.125 36.8007 261.988 38.3335C262.864 39.8667 264.098 41.0715 265.684 41.9475C267.27 42.8235 269.116 43.2616 271.226 43.2616C273.354 43.2616 275.2 42.8235 276.772 41.9475C278.358 41.0715 279.58 39.8667 280.443 38.3335C281.319 36.8007 281.758 35.0483 281.758 33.0774V0.401978ZM301.735 0.401978H315.253L329.531 35.175H330.137L344.415 0.401978H357.93V52.1569H347.298V18.4709H346.87L333.452 51.9043H326.213L312.798 18.3443H312.366V52.1569H301.735V0.401978Z" stroke="black" stroke-width="2" mask="url(#path-1-inside-1_1_2938)"/>
</g>
<defs>
<filter id="filter0_d_1_2938" x="0.146973" y="0.401978" width="361.783" height="60.4879" filterUnits="userSpaceOnUse" color-interpolation-filters="sRGB">
<feFlood flood-opacity="0" result="BackgroundImageFix"/>
<feColorMatrix in="SourceAlpha" type="matrix" values="0 0 0 0 0 0 0 0 0 0 0 0 0 0 0 0 0 0 127 0" result="hardAlpha"/>
<feOffset dy="4"/>
<feGaussianBlur stdDeviation="2"/>
<feComposite in2="hardAlpha" operator="out"/>
<feColorMatrix type="matrix" values="0 0 0 0 0 0 0 0 0 0 0 0 0 0 0 0 0 0 0.25 0"/>
<feBlend mode="normal" in2="BackgroundImageFix" result="effect1_dropShadow_1_2938"/>
<feBlend mode="normal" in="SourceGraphic" in2="effect1_dropShadow_1_2938" result="shape"/>
</filter>
</defs>
</svg>
