<svg width="20" height="21" viewBox="0 0 20 21" fill="none" xmlns="http://www.w3.org/2000/svg">
<g clip-path="url(#clip0_4_3537)">
<mask id="mask0_4_3537" style="mask-type:luminance" maskUnits="userSpaceOnUse" x="0" y="0" width="20" height="21">
<path d="M20 0.150391H0V20.1504H20V0.150391Z" fill="white"/>
</mask>
<g mask="url(#mask0_4_3537)">
<path d="M10 19.0677C14.9252 19.0677 18.9177 15.0752 18.9177 10.1501C18.9177 5.225 14.9252 1.23242 10 1.23242C5.07497 1.23242 1.0824 5.225 1.0824 10.1501C1.0824 15.0752 5.07497 19.0677 10 19.0677Z" fill="white"/>
<path d="M10 0.150391C8.02219 0.150391 6.08879 0.736881 4.4443 1.83569C2.79981 2.93451 1.51808 4.49629 0.761209 6.32356C0.00433296 8.15082 -0.193701 10.1615 0.192152 12.1013C0.578004 14.0411 1.53041 15.8229 2.92893 17.2215C4.32746 18.62 6.10929 19.5724 8.0491 19.9582C9.98892 20.3441 11.9996 20.1461 13.8268 19.3891C15.6541 18.6323 17.2159 17.3506 18.3147 15.7061C19.4135 14.0616 20 12.1282 20 10.1504C20.0038 8.84097 19.7497 7.54365 19.2522 6.33246C18.7546 5.12127 18.0233 4.01993 17.1002 3.09135C16.1769 2.16276 15.0799 1.4251 13.8716 0.920491C12.6633 0.415881 11.3675 0.154201 10.0581 0.150391H10ZM10.1695 10.4894L9.12833 14.0003H14.6973C14.7343 13.999 14.771 14.005 14.8056 14.0179C14.8402 14.0308 14.8718 14.0505 14.8988 14.0756C14.9258 14.1008 14.9476 14.1311 14.9628 14.1646C14.9782 14.1983 14.9867 14.2346 14.9879 14.2715V14.3635L14.5037 16.0341C14.4822 16.1131 14.4347 16.1826 14.3687 16.231C14.3027 16.2794 14.2222 16.3039 14.1404 16.3005H5.61743L7.04601 11.4336L5.44794 11.918L5.81114 10.8041L7.4092 10.3199L9.41892 3.49179C9.441 3.41323 9.48875 3.34432 9.55458 3.29606C9.62042 3.24779 9.7005 3.22293 9.78208 3.22545H11.9371C11.9739 3.22416 12.0107 3.23015 12.0453 3.24308C12.0798 3.25601 12.1116 3.27563 12.1385 3.30082C12.1655 3.326 12.1872 3.35626 12.2026 3.38987C12.2178 3.42347 12.2263 3.45975 12.2276 3.49664V3.58865L10.5327 9.35139L12.1307 8.86706L11.7917 10.0293L10.1695 10.4894Z" fill="#345D9D"/>
</g>
</g>
<defs>
<clipPath id="clip0_4_3537">
<rect width="20" height="20" fill="white" transform="translate(0 0.150391)"/>
</clipPath>
</defs>
</svg>
